<svg width="46" height="38" viewBox="0 0 46 38" fill="none" xmlns="http://www.w3.org/2000/svg">
<path d="M45.9162 17.7122L42.8748 32.9122C42.587 34.3466 41.8112 35.6372 40.6792 36.5647C39.5473 37.4922 38.129 37.9993 36.6654 38H6.33618C4.65572 38 3.04409 37.3327 1.85582 36.145C0.66756 34.9573 0 33.3464 0 31.6667V6.33333C0 4.65363 0.66756 3.04272 1.85582 1.85499C3.04409 0.66726 4.65572 0 6.33618 0H14.7844C15.1985 0.00323174 15.6024 0.128034 15.9461 0.358889L21.7542 4.22222H33.7929C35.4734 4.22222 37.085 4.88948 38.2733 6.07721C38.9576 6.76117 39.4692 7.58546 39.7801 8.48241C40.1621 9.58454 39.1835 10.5556 38.0171 10.5556H37.5632C36.6474 10.5556 35.9341 9.71018 35.2864 9.06278C34.8903 8.66687 34.3531 8.44444 33.7929 8.44444H21.1206C20.7066 8.44121 20.3026 8.31641 19.959 8.08556L14.4024 4.38959C14.2383 4.28045 14.0457 4.22222 13.8486 4.22222H6.33618C5.77603 4.22222 5.23881 4.44464 4.84273 4.84055C4.44664 5.23646 4.22412 5.77343 4.22412 6.33333V31.6667C4.22412 32.2266 4.44664 32.7635 4.84273 33.1595C5.23881 33.5554 5.77603 33.7778 6.33618 33.7778C6.55725 33.7778 6.7476 33.6218 6.79103 33.405L9.92668 17.7544C10.2145 16.32 10.9903 15.0295 12.1223 14.102C13.2542 13.1745 14.6725 12.6674 16.1361 12.6667H41.7765C42.4023 12.6651 43.0207 12.8026 43.5868 13.0691C44.153 13.3356 44.6528 13.7245 45.0502 14.2078C45.4447 14.6916 45.727 15.2569 45.8768 15.8628C46.0265 16.4688 46.04 17.1004 45.9162 17.7122Z" fill="#FF7F30"/>
</svg>
