<svg width="38" height="38" viewBox="0 0 38 38" fill="none" xmlns="http://www.w3.org/2000/svg">
<path d="M21.8488 21.7134C20.8383 22.724 19.4976 23.2798 18.0678 23.2798C16.6381 23.2798 15.2974 22.724 14.2868 21.7134C13.2762 20.7041 12.7217 19.3622 12.7217 17.9336C12.7217 16.5051 13.2774 15.1632 14.2868 14.1526C15.2974 13.1421 16.6381 12.5863 18.0678 12.5863C19.4976 12.5863 20.8383 13.1421 21.8488 14.1526C22.8594 15.162 23.4139 16.5051 23.4139 17.9336C23.4139 19.3622 22.8594 20.7041 21.8488 21.7134ZM38 19C38 29.4761 29.4761 38 19 38C8.52388 38 0 29.4761 0 19C0 8.52388 8.52388 0 19 0C29.4761 0 38 8.52269 38 19ZM27.4538 25.612L24.3117 22.4616C25.2664 21.1518 25.7889 19.5842 25.7889 17.9324C25.7889 15.8698 24.9862 13.9306 23.5279 12.4723C22.0697 11.0141 20.1317 10.2101 18.0678 10.2101C16.0039 10.2101 14.0659 11.0141 12.6077 12.4723C11.1494 13.9306 10.3467 15.8698 10.3467 17.9324C10.3467 19.9951 11.1506 21.9343 12.6077 23.3914C14.0659 24.8496 16.0039 25.6536 18.0678 25.6536C19.7362 25.6536 21.3204 25.1192 22.6385 24.1454L25.7723 27.2876C26.0039 27.5203 26.3079 27.6367 26.6131 27.6367C26.9171 27.6367 27.2199 27.5215 27.4514 27.2899C27.9158 26.8292 27.9157 26.0763 27.4538 25.612Z" fill="#FF7F30"/>
</svg>
