<svg width="25" height="33" viewBox="0 0 25 33" fill="none" xmlns="http://www.w3.org/2000/svg">
<path fill-rule="evenodd" clip-rule="evenodd" d="M4.29609 0H15.3291L24.6799 9.74664V28.7039C24.6799 31.0787 22.7586 33 20.392 33H4.29609C1.92128 33 6.78638e-10 31.0787 6.78638e-10 28.7039V4.29609C-4.16947e-05 1.92128 1.92124 0 4.29609 0Z" fill="#9C00F0"/>
<path opacity="0.302" fill-rule="evenodd" clip-rule="evenodd" d="M15.3203 0V9.67242H24.6794L15.3203 0Z" fill="white"/>
<path d="M6 14.625C5.44775 14.625 5 15.0167 5 15.5V22.5C5 22.9832 5.44775 23.375 6 23.375C6.55225 23.375 7 22.9832 7 22.5V15.5C7 15.0167 6.55225 14.625 6 14.625Z" fill="white"/>
<path d="M9 16.375C8.44775 16.375 8 16.7667 8 17.25V20.75C8 21.2332 8.44775 21.625 9 21.625C9.55225 21.625 10 21.2332 10 20.75V17.25C10 16.7667 9.55225 16.375 9 16.375Z" fill="white"/>
<path d="M12 12C11.4478 12 11 12.3917 11 12.875V25.125C11 25.6082 11.4478 26 12 26C12.5522 26 13 25.6082 13 25.125V12.875C13 12.3917 12.5522 12 12 12Z" fill="white"/>
<path d="M15 14.1875C14.4478 14.1875 14 14.5792 14 15.0625V22.9375C14 23.4207 14.4478 23.8125 15 23.8125C15.5522 23.8125 16 23.4207 16 22.9375V15.0625C16 14.5792 15.5522 14.1875 15 14.1875Z" fill="white"/>
<path d="M18 16.375C17.4478 16.375 17 16.7667 17 17.25V20.75C17 21.2332 17.4478 21.625 18 21.625C18.5522 21.625 19 21.2332 19 20.75V17.25C19 16.7667 18.5522 16.375 18 16.375Z" fill="white"/>
</svg>
