<svg width="25" height="33" viewBox="0 0 25 33" fill="none" xmlns="http://www.w3.org/2000/svg">
<path fill-rule="evenodd" clip-rule="evenodd" d="M15.3291 0H4.29609C1.92124 0 -4.16947e-05 1.92128 6.78638e-10 4.29609V28.7039C6.78638e-10 31.0787 1.92128 33 4.29609 33H20.392C22.7586 33 24.6799 31.0787 24.6799 28.7039V9.74664L15.3291 0ZM4.04216 17.4V23H6.21816C6.74082 23 7.19416 22.8907 7.57816 22.672C7.96749 22.448 8.26616 22.1253 8.47416 21.704C8.68216 21.2827 8.78616 20.7813 8.78616 20.2C8.78616 19.6187 8.68216 19.1173 8.47416 18.696C8.26616 18.2747 7.96749 17.9547 7.57816 17.736C7.19416 17.512 6.74082 17.4 6.21816 17.4H4.04216ZM6.17816 21.888C6.43416 21.888 6.66349 21.8267 6.86616 21.704C7.07416 21.576 7.23949 21.384 7.36216 21.128C7.49016 20.872 7.55416 20.5627 7.55416 20.2C7.55416 19.8373 7.49016 19.528 7.36216 19.272C7.23949 19.016 7.07416 18.8267 6.86616 18.704C6.66349 18.576 6.43416 18.512 6.17816 18.512H5.27416V21.888H6.17816ZM11.9795 23.08C11.4462 23.08 10.9795 22.968 10.5795 22.744C10.1849 22.5147 9.8782 22.184 9.65953 21.752C9.44086 21.32 9.33153 20.8027 9.33153 20.2C9.33153 19.5973 9.44086 19.08 9.65953 18.648C9.8782 18.216 10.1849 17.888 10.5795 17.664C10.9795 17.4347 11.4462 17.32 11.9795 17.32C12.5129 17.32 12.9769 17.4347 13.3715 17.664C13.7715 17.888 14.0809 18.216 14.2995 18.648C14.5182 19.08 14.6275 19.5973 14.6275 20.2C14.6275 20.8027 14.5182 21.32 14.2995 21.752C14.0809 22.184 13.7715 22.5147 13.3715 22.744C12.9769 22.968 12.5129 23.08 11.9795 23.08ZM12.7155 21.768C12.5075 21.9013 12.2622 21.968 11.9795 21.968C11.6969 21.968 11.4489 21.9013 11.2355 21.768C11.0275 21.6347 10.8622 21.4347 10.7395 21.168C10.6222 20.9013 10.5635 20.5787 10.5635 20.2C10.5635 19.8213 10.6222 19.4987 10.7395 19.232C10.8622 18.9653 11.0275 18.7653 11.2355 18.632C11.4489 18.4987 11.6969 18.432 11.9795 18.432C12.2622 18.432 12.5075 18.4987 12.7155 18.632C12.9289 18.7653 13.0942 18.9653 13.2115 19.232C13.3342 19.4987 13.3955 19.8213 13.3955 20.2C13.3955 20.5787 13.3342 20.9013 13.2115 21.168C13.0942 21.4347 12.9289 21.6347 12.7155 21.768ZM16.4214 22.744C16.8214 22.968 17.2881 23.08 17.8214 23.08C18.4987 23.08 19.0401 22.9147 19.4454 22.584C19.8507 22.248 20.1254 21.7947 20.2694 21.224H18.9974C18.8854 21.464 18.7387 21.648 18.5574 21.776C18.3814 21.904 18.1361 21.968 17.8214 21.968C17.5387 21.968 17.2907 21.9013 17.0774 21.768C16.8694 21.6347 16.7041 21.4347 16.5814 21.168C16.4641 20.9013 16.4054 20.5787 16.4054 20.2C16.4054 19.8213 16.4641 19.4987 16.5814 19.232C16.7041 18.9653 16.8694 18.7653 17.0774 18.632C17.2907 18.4987 17.5387 18.432 17.8214 18.432C18.1361 18.432 18.3814 18.496 18.5574 18.624C18.7387 18.752 18.8854 18.936 18.9974 19.176H20.2694C20.1254 18.6053 19.8507 18.1547 19.4454 17.824C19.0401 17.488 18.4987 17.32 17.8214 17.32C17.2881 17.32 16.8214 17.4347 16.4214 17.664C16.0267 17.888 15.7201 18.216 15.5014 18.648C15.2827 19.08 15.1734 19.5973 15.1734 20.2C15.1734 20.8027 15.2827 21.32 15.5014 21.752C15.7201 22.184 16.0267 22.5147 16.4214 22.744Z" fill="#004AB1"/>
<path opacity="0.302" fill-rule="evenodd" clip-rule="evenodd" d="M15.3203 0V9.67242H24.6794L15.3203 0Z" fill="white"/>
</svg>
