<svg preserveAspectRatio="none" width="100%" height="100%" overflow="visible" style="display: block;" viewBox="0 0 36 32" fill="none" xmlns="http://www.w3.org/2000/svg">
<g id="Vector">
<path d="M27.0403 6.58135C25.1153 2.56134 21.0493 0 16.4976 0C10.5607 0 5.59515 4.39354 4.9115 10.1034C1.94299 11.2418 0 14.1056 0 17.4497C0 19.94 1.2953 22.0923 3.65211 23.5153C3.93997 23.6932 4.26384 23.7821 4.58768 23.7821C5.19937 23.7821 5.79302 23.4797 6.11685 22.9283C6.63859 22.0923 6.36882 20.9894 5.52324 20.4736C4.24588 19.7087 3.59819 18.677 3.59819 17.4497C3.59819 15.4575 4.74963 13.8388 6.53074 13.3229C7.61019 13.0205 8.36579 12.0956 8.43776 10.9928C8.68963 6.83045 12.2338 3.57534 16.4976 3.57534C19.808 3.57534 22.7407 5.53195 23.982 8.53807C24.3598 9.46303 25.2592 10.0856 26.2847 10.1212C29.595 10.2101 32.4018 12.8427 32.4018 15.8844C32.4018 17.3429 31.8619 18.6415 30.8544 19.6553C30.1528 20.3491 30.1528 21.4875 30.8544 22.1812C31.5561 22.8749 32.6897 22.8749 33.4093 22.1812C35.0825 20.5092 36 18.2857 36 15.9021C36 11.1173 32.0418 7.07944 27.0583 6.61696L27.0403 6.58135Z" fill="var(--fill-0, #FF7F30)"/>
<path d="M19.5381 13.0917C18.7285 12.2735 17.2532 12.2735 16.4616 13.0917L11.856 17.8056C11.1723 18.5171 11.1903 19.6376 11.892 20.3135C12.2338 20.6515 12.6836 20.8115 13.1333 20.8115C13.5831 20.8115 14.0688 20.6337 14.4287 20.2601L16.1738 18.4638V30.2212C16.1738 31.1996 16.9834 32 17.9729 32C18.9624 32 19.772 31.1996 19.772 30.2212V18.4638L21.5171 20.2425C22.2008 20.954 23.3522 20.9716 24.0538 20.2957C24.7735 19.6198 24.7914 18.4814 24.1078 17.7876L19.5201 13.0917H19.5381Z" fill="var(--fill-0, #FF7F30)"/>
</g>
</svg>
