<svg preserveAspectRatio="none" width="100%" height="100%" overflow="visible" style="display: block;" viewBox="0 0 32 32" fill="none" xmlns="http://www.w3.org/2000/svg">
<g id="Vector">
<path fill-rule="evenodd" clip-rule="evenodd" d="M32 2.60465C32 1.91405 31.7261 1.25172 31.2365 0.763535C30.7483 0.27386 30.086 0 29.3953 0C24.314 0 7.68595 0 2.60465 0C1.91405 0 1.25172 0.27386 0.763535 0.763535C0.27386 1.25172 0 1.91405 0 2.60465V7.06977C0 7.76037 0.27386 8.4227 0.763535 8.91088C1.25172 9.40056 1.91405 9.67442 2.60465 9.67442H29.3953C30.086 9.67442 30.7483 9.40056 31.2365 8.91088C31.7261 8.4227 32 7.76037 32 7.06977V2.60465ZM6.32558 3.34884C7.14716 3.34884 7.81395 4.01563 7.81395 4.83721C7.81395 5.65879 7.14716 6.32558 6.32558 6.32558C5.504 6.32558 4.83721 5.65879 4.83721 4.83721C4.83721 4.01563 5.504 3.34884 6.32558 3.34884ZM11.5349 3.34884C12.3565 3.34884 13.0233 4.01563 13.0233 4.83721C13.0233 5.65879 12.3565 6.32558 11.5349 6.32558C10.7133 6.32558 10.0465 5.65879 10.0465 4.83721C10.0465 4.01563 10.7133 3.34884 11.5349 3.34884ZM27.1628 3.72093H22.6977C22.0815 3.72093 21.5814 4.22102 21.5814 4.83721C21.5814 5.4534 22.0815 5.95349 22.6977 5.95349H27.1628C27.779 5.95349 28.2791 5.4534 28.2791 4.83721C28.2791 4.22102 27.779 3.72093 27.1628 3.72093Z" fill="var(--fill-0, #FF7F30)"/>
<path fill-rule="evenodd" clip-rule="evenodd" d="M32 13.7674C32 13.0768 31.7261 12.4145 31.2365 11.9263C30.7483 11.4367 30.086 11.1628 29.3953 11.1628C24.314 11.1628 7.68595 11.1628 2.60465 11.1628C1.91405 11.1628 1.25172 11.4367 0.763535 11.9263C0.27386 12.4145 0 13.0768 0 13.7674V18.2326C0 18.9232 0.27386 19.5855 0.763535 20.0737C1.25172 20.5634 1.91405 20.8372 2.60465 20.8372H29.3953C30.086 20.8372 30.7483 20.5634 31.2365 20.0737C31.7261 19.5855 32 18.9232 32 18.2326V13.7674ZM6.32558 14.5116C7.14716 14.5116 7.81395 15.1784 7.81395 16C7.81395 16.8216 7.14716 17.4884 6.32558 17.4884C5.504 17.4884 4.83721 16.8216 4.83721 16C4.83721 15.1784 5.504 14.5116 6.32558 14.5116ZM11.5349 14.5116C12.3565 14.5116 13.0233 15.1784 13.0233 16C13.0233 16.8216 12.3565 17.4884 11.5349 17.4884C10.7133 17.4884 10.0465 16.8216 10.0465 16C10.0465 15.1784 10.7133 14.5116 11.5349 14.5116ZM27.1628 14.8837H22.6977C22.0815 14.8837 21.5814 15.3838 21.5814 16C21.5814 16.6162 22.0815 17.1163 22.6977 17.1163H27.1628C27.779 17.1163 28.2791 16.6162 28.2791 16C28.2791 15.3838 27.779 14.8837 27.1628 14.8837Z" fill="var(--fill-0, #FF7F30)"/>
<path fill-rule="evenodd" clip-rule="evenodd" d="M32 24.9302C32 24.2396 31.7261 23.5773 31.2365 23.0891C30.7483 22.5994 30.086 22.3256 29.3953 22.3256C24.314 22.3256 7.68595 22.3256 2.60465 22.3256C1.91405 22.3256 1.25172 22.5994 0.763535 23.0891C0.27386 23.5773 0 24.2396 0 24.9302V29.3954C0 30.086 0.27386 30.7483 0.763535 31.2365C1.25172 31.7261 1.91405 32 2.60465 32H29.3953C30.086 32 30.7483 31.7261 31.2365 31.2365C31.7261 30.7483 32 30.086 32 29.3954V24.9302ZM6.32558 25.6744C7.14716 25.6744 7.81395 26.3412 7.81395 27.1628C7.81395 27.9844 7.14716 28.6512 6.32558 28.6512C5.504 28.6512 4.83721 27.9844 4.83721 27.1628C4.83721 26.3412 5.504 25.6744 6.32558 25.6744ZM11.5349 25.6744C12.3565 25.6744 13.0233 26.3412 13.0233 27.1628C13.0233 27.9844 12.3565 28.6512 11.5349 28.6512C10.7133 28.6512 10.0465 27.9844 10.0465 27.1628C10.0465 26.3412 10.7133 25.6744 11.5349 25.6744ZM27.1628 26.0465H22.6977C22.0815 26.0465 21.5814 26.5466 21.5814 27.1628C21.5814 27.779 22.0815 28.2791 22.6977 28.2791H27.1628C27.779 28.2791 28.2791 27.779 28.2791 27.1628C28.2791 26.5466 27.779 26.0465 27.1628 26.0465Z" fill="var(--fill-0, #FF7F30)"/>
</g>
</svg>
