<svg width="25" height="33" viewBox="0 0 25 33" fill="none" xmlns="http://www.w3.org/2000/svg">
<path fill-rule="evenodd" clip-rule="evenodd" d="M4.29609 0H15.3291L24.6799 9.74664V28.7039C24.6799 31.0787 22.7586 33 20.392 33H4.29609C1.92128 33 6.78638e-10 31.0787 6.78638e-10 28.7039V4.29609C-4.16947e-05 1.92128 1.92124 0 4.29609 0Z" fill="#F0B000"/>
<path opacity="0.302" fill-rule="evenodd" clip-rule="evenodd" d="M15.3203 0V9.67242H24.6794L15.3203 0Z" fill="white"/>
<path d="M5.40586 23.907L5.39186 23.921C5.20286 23.508 5.08386 23.039 5.03486 22.521C5.08386 23.032 5.21686 23.494 5.40586 23.907Z" fill="black"/>
<path d="M9.90008 17.866C10.8202 17.866 11.5661 17.1201 11.5661 16.2C11.5661 15.2799 10.8202 14.534 9.90008 14.534C8.97998 14.534 8.23408 15.2799 8.23408 16.2C8.23408 17.1201 8.97998 17.866 9.90008 17.866Z" fill="black"/>
<path d="M14.933 12H9.067C6.519 12 5 13.519 5 16.067V21.933C5 22.696 5.133 23.361 5.392 23.921C5.994 25.251 7.282 26 9.067 26H14.933C17.481 26 19 24.481 19 21.933V16.067C19 13.519 17.481 12 14.933 12ZM17.859 19.35C17.313 18.881 16.431 18.881 15.885 19.35L12.973 21.849C12.427 22.318 11.545 22.318 10.999 21.849L10.761 21.653C10.264 21.219 9.473 21.177 8.913 21.555L6.295 23.312C6.141 22.92 6.05 22.465 6.05 21.933V16.067C6.05 14.093 7.093 13.05 9.067 13.05H14.933C16.907 13.05 17.95 14.093 17.95 16.067V19.427L17.859 19.35Z" fill="black"/>
</svg>
