<svg width="38" height="38" viewBox="0 0 38 38" fill="none" xmlns="http://www.w3.org/2000/svg">
<path d="M34.7588 26.6425C34.2197 26.3464 33.5429 26.5433 33.247 27.0821C32.951 27.621 33.1478 28.2979 33.6867 28.5939C35.0128 29.3224 35.7734 30.1301 35.7734 30.8098C35.7734 31.6411 34.5956 32.9295 31.2897 34.0527C28.0237 35.1624 23.6591 35.7734 19 35.7734C14.3409 35.7734 9.97634 35.1624 6.71034 34.0527C3.40441 32.9296 2.22656 31.6411 2.22656 30.8098C2.22656 30.1301 2.98716 29.3224 4.3133 28.5938C4.8522 28.2978 5.04903 27.621 4.75297 27.0821C4.45691 26.5432 3.78026 26.3463 3.24121 26.6424C1.76262 27.4547 0 28.8371 0 30.8098C0 32.3219 1.03995 34.4778 5.99405 36.1609C9.48471 37.3469 14.1036 38 19 38C23.8964 38 28.5153 37.3469 32.0059 36.1609C36.96 34.4778 38 32.3219 38 30.8098C38 28.8371 36.2374 27.4547 34.7588 26.6425Z" fill="#FF7F30"/>
<path d="M10.5949 32.4432C12.8548 33.0817 15.8398 33.4333 19 33.4333C22.1602 33.4333 25.1452 33.0817 27.4051 32.4432C30.17 31.6622 31.5719 30.5316 31.5719 29.083C31.5719 27.6343 30.17 26.5038 27.4051 25.7228C27.0125 25.6119 26.5979 25.5097 26.1643 25.4165C25.7158 25.3201 25.2697 25.5179 25.038 25.9138C24.6473 26.581 25.0428 27.4496 25.7979 27.6156C26.0025 27.6606 26.2018 27.7077 26.3955 27.7571C28.4302 28.2753 29.1736 28.8588 29.3264 29.0831C29.1735 29.3074 28.4303 29.8909 26.3955 30.4091C24.4696 30.8996 21.9918 31.1794 19.382 31.2044C19.2556 31.2137 19.1283 31.219 19 31.219C18.8717 31.219 18.7444 31.2137 18.6179 31.2044C16.0082 31.1794 13.5303 30.8996 11.6044 30.4091C9.56962 29.8909 8.82632 29.3074 8.6735 29.0831C8.82632 28.8588 9.56969 28.2753 11.6045 27.7571C11.7982 27.7077 11.9975 27.6606 12.202 27.6156C12.9572 27.4497 13.3527 26.5809 12.962 25.9137C12.7303 25.5179 12.2842 25.3201 11.8357 25.4165C11.4021 25.5097 10.9875 25.6119 10.5949 25.7228C7.83 26.5038 6.42809 27.6344 6.42809 29.083C6.42809 30.5316 7.83 31.6622 10.5949 32.4432Z" fill="#FF7F30"/>
<path d="M19 28.9924C19.991 28.9924 20.8912 28.4874 21.4082 27.6415C25.0309 21.7146 29.3491 13.9034 29.3491 10.349C29.3491 4.64253 24.7065 0 19 0C13.2935 0 8.65094 4.64253 8.65094 10.349C8.65094 13.9034 12.9692 21.7146 16.5918 27.6415C17.1088 28.4874 18.009 28.9924 19 28.9924ZM14.8403 9.63842C14.8403 7.34484 16.7063 5.47883 19 5.47883C21.2937 5.47883 23.1597 7.34484 23.1597 9.63842C23.1597 11.9321 21.2937 13.7981 19 13.7981C16.7063 13.7981 14.8403 11.9321 14.8403 9.63842Z" fill="#FF7F30"/>
</svg>
