<svg width="38" height="38" viewBox="0 0 38 38" fill="none" xmlns="http://www.w3.org/2000/svg">
<path fill-rule="evenodd" clip-rule="evenodd" d="M0 10.833C0 9.9701 0.293664 9.13292 0.832694 8.45912L5.88861 2.13925C6.9703 0.787113 8.60799 0 10.3396 0H27.6604C29.392 0 31.0297 0.787113 32.1113 2.13923L37.1672 8.45912C37.7063 9.13292 38 9.9701 38 10.833V32.3C38 35.4481 35.4481 38 32.3 38H5.7C2.55198 38 0 35.4481 0 32.3V10.833ZM10.3396 3.8H27.6604C28.2376 3.8 28.7835 4.06237 29.1441 4.51307L32.5162 8.72828C32.7651 9.03929 32.5436 9.5 32.1453 9.5H5.85468C5.45638 9.5 5.23496 9.03929 5.48376 8.72828L8.85592 4.51309C9.21648 4.06237 9.76237 3.8 10.3396 3.8ZM20.9038 17.0992C20.9038 16.0499 20.053 15.1992 19.0038 15.1992C17.9544 15.1992 17.1038 16.0499 17.1038 17.0992V26.7632L15.5935 25.2529C14.8515 24.511 13.6485 24.511 12.9065 25.2529C12.1645 25.995 12.1645 27.1979 12.9065 27.9401L16.3166 31.35C17.8005 32.8341 20.2065 32.8341 21.6906 31.35L25.0935 27.9473C25.8354 27.2052 25.8354 26.0023 25.0935 25.2601C24.3515 24.5182 23.1485 24.5182 22.4065 25.2601L20.9038 26.763V17.0992Z" fill="#FF7F30"/>
</svg>
