<svg width="25" height="33" viewBox="0 0 25 33" fill="none" xmlns="http://www.w3.org/2000/svg">
<path fill-rule="evenodd" clip-rule="evenodd" d="M15.3291 0H4.29609C1.92124 0 -4.16947e-05 1.92128 6.78638e-10 4.29609V28.7039C6.78638e-10 31.0787 1.92128 33 4.29609 33H20.392C22.7586 33 24.6799 31.0787 24.6799 28.7039V9.74664L15.3291 0ZM4.91716 17.4V23H6.14916V21.256H7.25316C7.63716 21.256 7.97849 21.176 8.27716 21.016C8.57582 20.8507 8.80782 20.6213 8.97316 20.328C9.13849 20.0347 9.22116 19.7013 9.22116 19.328C9.22116 18.96 9.13849 18.6293 8.97316 18.336C8.80782 18.0373 8.57582 17.808 8.27716 17.648C7.97849 17.4827 7.63716 17.4 7.25316 17.4H4.91716ZM7.12516 20.152C7.31182 20.152 7.46649 20.12 7.58916 20.056C7.71716 19.992 7.81582 19.8987 7.88516 19.776C7.95449 19.648 7.98916 19.4987 7.98916 19.328C7.98916 19.072 7.91182 18.872 7.75716 18.728C7.60782 18.5787 7.39716 18.504 7.12516 18.504H6.14916V20.152H7.12516ZM10.009 23V17.4H12.185C12.7077 17.4 13.161 17.512 13.545 17.736C13.9344 17.9547 14.233 18.2747 14.441 18.696C14.649 19.1173 14.753 19.6187 14.753 20.2C14.753 20.7813 14.649 21.2827 14.441 21.704C14.233 22.1253 13.9344 22.448 13.545 22.672C13.161 22.8907 12.7077 23 12.185 23H10.009ZM12.833 21.704C12.6304 21.8267 12.401 21.888 12.145 21.888H11.241V18.512H12.145C12.401 18.512 12.6304 18.576 12.833 18.704C13.041 18.8267 13.2064 19.016 13.329 19.272C13.457 19.528 13.521 19.8373 13.521 20.2C13.521 20.5627 13.457 20.872 13.329 21.128C13.2064 21.384 13.041 21.576 12.833 21.704ZM16.7704 23H15.5384V17.4H19.3544V18.512H16.7704V19.792H19.1544V20.904H16.7704V23Z" fill="#E5252A"/>
<path opacity="0.302" fill-rule="evenodd" clip-rule="evenodd" d="M15.3203 0V9.67242H24.6794L15.3203 0Z" fill="white"/>
</svg>
