<svg width="38" height="38" viewBox="0 0 38 38" fill="none" xmlns="http://www.w3.org/2000/svg">
<path d="M18.9836 0C8.4902 0.0090833 -0.00907603 8.52298 7.27381e-06 19.0164C0.00909058 29.5099 8.52299 38.0091 19.0164 38C29.5034 37.9909 38 29.487 38 19C37.9819 8.50767 29.4759 0.00900632 18.9836 0ZM26.784 17.1115L26.7676 17.1279L19.3778 30.4952C19.2427 30.7502 18.9766 30.9086 18.6881 30.9057H18.4581C18.1114 30.7947 17.8824 30.4647 17.8998 30.1011L18.2279 23.1838C18.2549 22.6136 17.7999 22.1365 17.229 22.1365H11.873C11.5989 22.1335 11.3452 21.9911 11.1997 21.7587C11.0555 21.5158 11.0555 21.2134 11.1997 20.9705L18.5895 7.50465C18.7672 7.1755 19.1482 7.01223 19.5092 7.11053C19.8524 7.22623 20.0793 7.55315 20.0675 7.91517L19.7536 14.8345C19.7277 15.404 20.1825 15.8798 20.7525 15.8798H26.1107C26.3944 15.8794 26.6544 16.038 26.784 16.2904C26.9546 16.5375 26.9546 16.8644 26.784 17.1115Z" fill="#FF7F30"/>
</svg>
