<svg width="25" height="33" viewBox="0 0 25 33" fill="none" xmlns="http://www.w3.org/2000/svg">
<path fill-rule="evenodd" clip-rule="evenodd" d="M4.29609 0H15.3291L24.6799 9.74664V28.7039C24.6799 31.0787 22.7586 33 20.392 33H4.29609C1.92128 33 6.78638e-10 31.0787 6.78638e-10 28.7039V4.29609C-4.16947e-05 1.92128 1.92124 0 4.29609 0ZM13.9198 18.512V23H15.1518V18.512H16.8238V17.5368L18.4953 20.12L16.6553 23H18.0393L19.2713 20.92L20.5033 23H21.8953L20.0553 20.12L21.8153 17.4H20.4553L19.2953 19.336L18.1353 17.4H16.8238V17.5368L16.7353 17.4H12.2558V18.512H13.9198ZM7.83809 23V17.4H10.1741C10.5581 17.4 10.8994 17.4827 11.1981 17.648C11.4968 17.808 11.7288 18.0373 11.8941 18.336C12.0594 18.6293 12.1421 18.96 12.1421 19.328C12.1421 19.7013 12.0594 20.0347 11.8941 20.328C11.7288 20.6213 11.4968 20.8507 11.1981 21.016C10.8994 21.176 10.5581 21.256 10.1741 21.256H9.07009V23H7.83809ZM10.5101 20.056C10.3874 20.12 10.2328 20.152 10.0461 20.152H9.07009V18.504H10.0461C10.3181 18.504 10.5288 18.5787 10.6781 18.728C10.8328 18.872 10.9101 19.072 10.9101 19.328C10.9101 19.4987 10.8754 19.648 10.8061 19.776C10.7368 19.8987 10.6381 19.992 10.5101 20.056ZM2.74622 17.4V23H3.97822V21.256H5.08222C5.46622 21.256 5.80755 21.176 6.10622 21.016C6.40489 20.8507 6.63689 20.6213 6.80222 20.328C6.96755 20.0347 7.05022 19.7013 7.05022 19.328C7.05022 18.96 6.96755 18.6293 6.80222 18.336C6.63689 18.0373 6.40489 17.808 6.10622 17.648C5.80755 17.4827 5.46622 17.4 5.08222 17.4H2.74622ZM4.95422 20.152C5.14089 20.152 5.29555 20.12 5.41822 20.056C5.54622 19.992 5.64489 19.8987 5.71422 19.776C5.78355 19.648 5.81822 19.4987 5.81822 19.328C5.81822 19.072 5.74089 18.872 5.58622 18.728C5.43689 18.5787 5.22622 18.504 4.95422 18.504H3.97822V20.152H4.95422Z" fill="#F35900"/>
<path opacity="0.302" fill-rule="evenodd" clip-rule="evenodd" d="M15.3203 0V9.67242H24.6794L15.3203 0Z" fill="white"/>
</svg>
