<svg preserveAspectRatio="none" width="100%" height="100%" overflow="visible" style="display: block;" viewBox="0 0 27 28" fill="none" xmlns="http://www.w3.org/2000/svg">
<g id="Vector">
<path d="M9.80859 0C7.67635 0 5.85125 1.38876 5.12945 3.33978C6.84682 3.37119 8.45542 4.07785 9.67078 5.33823C9.67532 5.34271 9.67985 5.34741 9.68417 5.35211C10.2212 5.91757 9.66275 6.85346 8.93147 6.61954C8.69561 6.54413 8.47932 6.41553 8.29289 6.24762C7.29918 5.35211 6.04344 4.93149 4.80295 4.98404V4.98084C2.13615 5.09384 0 7.37897 0 10.1719C0 11.6442 0.602325 13.0276 1.62364 14C0.602325 14.9724 0 16.3558 0 17.8281C0 20.621 2.13615 22.9062 4.80315 23.0192C4.91192 25.7847 7.11543 28 9.80859 28C9.85577 28 9.90273 27.9994 9.94929 27.9981C11.8646 27.9429 12.709 25.7469 12.709 23.7599V4.23986C12.709 2.25298 11.8647 0.0571144 9.94949 0.0019226C9.90273 0.000640872 9.85577 0 9.80859 0Z" fill="var(--fill-0, #FF7F30)"/>
<path d="M25.3764 14C26.3977 13.0276 27 11.6442 27 10.1719C27 7.37897 24.8638 5.09384 22.1971 4.98084C22.0881 2.21527 19.8846 0 17.1914 0C17.1442 0 17.0973 0.000640872 17.0509 0.0019226C15.1355 0.0570984 14.291 2.25316 14.291 4.24025V23.7605C14.291 25.7472 15.1355 27.9429 17.0505 27.9981C17.0973 27.9994 17.1442 28 17.1914 28C19.3236 28 21.1488 26.6112 21.8708 24.6602C20.1532 24.6288 18.5446 23.9222 17.3292 22.662C17.3247 22.6573 17.3204 22.6526 17.3158 22.6479C16.7788 22.0824 17.3373 21.1465 18.0685 21.3805C18.3046 21.4559 18.5207 21.5845 18.7071 21.7524C19.701 22.6479 20.9568 23.0685 22.1971 23.016V23.0192C24.8638 22.9062 27 20.621 27 17.8281C27 16.3558 26.3977 14.9724 25.3764 14Z" fill="var(--fill-0, #FF7F30)"/>
</g>
</svg>
