<svg preserveAspectRatio="none" width="100%" height="100%" overflow="visible" style="display: block;" viewBox="0 0 16.0879 21.4505" fill="none" xmlns="http://www.w3.org/2000/svg">
<path id="Vector" d="M10.7096 0.564483C10.7096 0.453724 10.6765 0.345411 10.6143 0.253035C10.5521 0.160659 10.4636 0.0883017 10.3598 0.0449766C10.2561 0.00165139 10.1416 -0.0107277 10.0307 0.00938127C9.91988 0.0294902 9.81748 0.0811987 9.73631 0.158066L7.69314 2.08855C4.65226 4.96248 2.08227 8.28129 0.0743522 11.9272C0.024965 12.0131 -0.00066553 12.1102 1.31355e-05 12.2088C0.000691801 12.3074 0.0276559 12.4041 0.0782202 12.4893C0.128784 12.5745 0.201184 12.6452 0.288209 12.6943C0.375234 12.7435 0.473847 12.7694 0.574228 12.7694H5.52702V20.8854C5.52688 20.9949 5.55916 21.102 5.61993 21.1938C5.6807 21.2856 5.76733 21.3581 5.86928 21.4024C5.97122 21.4466 6.08408 21.4608 6.19408 21.4432C6.30409 21.4256 6.40651 21.3769 6.48885 21.3031L7.40241 20.4846C10.6024 17.6208 13.3181 14.2749 15.4475 10.5725L16.0129 9.59034C16.0626 9.50445 16.0884 9.40727 16.0879 9.30849C16.0874 9.20971 16.0605 9.1128 16.0099 9.02744C15.9593 8.94208 15.8868 8.87126 15.7996 8.82205C15.7124 8.77284 15.6136 8.74697 15.513 8.74702H10.7096V0.564483Z" fill="var(--fill-0, #FF7F30)"/>
</svg>
