<svg preserveAspectRatio="none" width="100%" height="100%" overflow="visible" style="display: block;" viewBox="0 0 27 30" fill="none" xmlns="http://www.w3.org/2000/svg">
<g id="AUDIO">
<g id="Vector">
<path d="M1.71051 13.5444C1.3181 13.5444 1 13.8623 1 14.2544V24.6821C1 25.0742 1.31815 25.3921 1.71051 25.3921H5.99125V13.5444H1.71051Z" fill="var(--fill-0, #FF7F30)"/>
<path d="M25 17.465C25 16.5638 24.5154 15.7734 23.7928 15.3406C24.0697 14.9412 24.232 14.4566 24.232 13.935C24.232 12.5704 23.1209 11.4601 21.7552 11.4601H16.5266C16.6869 10.7345 16.906 9.64561 17.0586 8.50575C17.4558 5.53946 17.1844 3.89438 16.2045 3.32864C15.5937 2.976 14.935 2.90447 14.35 3.12703C13.898 3.29907 13.2876 3.72202 12.9397 4.76007L11.5655 8.35542C10.8689 10.0747 8.73542 11.8796 7.41231 12.8776V25.7063C9.86452 26.5648 12.4234 27 15.034 27H20.7311C22.0968 27 23.2079 25.8897 23.2079 24.525C23.2079 24.0472 23.0716 23.6004 22.8359 23.2217C23.6616 22.8199 24.2319 21.9727 24.2319 20.995C24.2319 20.4734 24.0696 19.989 23.7928 19.5895C24.5154 19.1566 25 18.3663 25 17.465Z" fill="var(--fill-0, #FF7F30)"/>
</g>
</g>
</svg>
