<svg width="25" height="33" viewBox="0 0 25 33" fill="none" xmlns="http://www.w3.org/2000/svg">
<path fill-rule="evenodd" clip-rule="evenodd" d="M4.29609 0H15.3291L24.6799 9.74664V28.7039C24.6799 31.0787 22.7586 33 20.392 33H4.29609C1.92128 33 6.78638e-10 31.0787 6.78638e-10 28.7039V4.29609C-4.16947e-05 1.92128 1.92124 0 4.29609 0Z" fill="#0088F0"/>
<path opacity="0.302" fill-rule="evenodd" clip-rule="evenodd" d="M15.3203 0V9.67242H24.6794L15.3203 0Z" fill="white"/>
<path d="M12.7877 16H7.31291C6.59081 16 6 16.5866 6 17.3035V21.6965C6 22.4134 6.59081 23 7.31291 23H12.7877C13.5098 23 14.1007 22.4134 14.1007 21.6965V17.3035C14.1007 16.5736 13.5098 16 12.7877 16Z" fill="white"/>
<path d="M17.0284 16.7169C16.9497 16.73 16.8709 16.7691 16.8053 16.8082L14.7571 17.9814V21.0056L16.8184 22.1788C17.1991 22.4004 17.6718 22.27 17.895 21.892C17.9606 21.7747 18 21.6443 18 21.5009V17.473C18 16.9907 17.5405 16.5996 17.0284 16.7169Z" fill="white"/>
</svg>
