<svg width="43" height="38" viewBox="0 0 43 38" fill="none" xmlns="http://www.w3.org/2000/svg">
<path d="M15.9031 6.51498C7.17538 6.46481 0.00806938 13.5518 6.87734e-06 22.2425C-0.00268062 25.1414 0.782405 27.8573 2.15269 30.1909C2.2932 30.4303 2.32167 30.7186 2.22979 30.9803L0.548173 35.7727C0.305626 36.4639 0.90897 37.1559 1.6304 37.014L7.40911 35.8765C7.6299 35.833 7.85952 35.8681 8.05562 35.9783C10.3458 37.2645 12.9897 37.9994 15.8064 38C24.5265 38.002 31.6202 30.9401 31.6201 22.2572C31.62 13.5938 24.5919 6.56481 15.9031 6.51498ZM7.19318 24.1156C7.19318 24.8293 6.6121 25.4078 5.89537 25.4078C5.17865 25.4078 4.59756 24.8292 4.59756 24.1156V20.3992C4.59756 19.6855 5.17865 19.107 5.89537 19.107C6.6121 19.107 7.19318 19.6856 7.19318 20.3992V24.1156ZM12.1505 26.8303C12.1505 27.544 11.5694 28.1226 10.8527 28.1226C10.136 28.1226 9.55491 27.544 9.55491 26.8303V17.6845C9.55491 16.9708 10.136 16.3923 10.8527 16.3923C11.5694 16.3923 12.1505 16.9709 12.1505 17.6845V26.8303ZM17.1079 24.1156C17.1079 24.8293 16.5268 25.4078 15.8101 25.4078C15.0933 25.4078 14.5123 24.8292 14.5123 24.1156V20.3992C14.5123 19.6855 15.0933 19.107 15.8101 19.107C16.5268 19.107 17.1079 19.6856 17.1079 20.3992V24.1156ZM22.0651 25.5477C22.0651 26.2614 21.4841 26.8399 20.7673 26.8399C20.0506 26.8399 19.4695 26.2613 19.4695 25.5477V18.967C19.4695 18.2533 20.0506 17.6748 20.7673 17.6748C21.484 17.6748 22.0651 18.2534 22.0651 18.967V25.5477ZM27.0224 23.0863C27.0224 23.8 26.4413 24.3785 25.7246 24.3785C25.0079 24.3785 24.4268 23.7999 24.4268 23.0863V21.4285C24.4268 20.7148 25.0079 20.1362 25.7246 20.1362C26.4413 20.1362 27.0224 20.7148 27.0224 21.4285V23.0863Z" fill="#FF7F30"/>
<path d="M40.7702 24.4655C40.6785 24.2041 40.7065 23.9159 40.8469 23.6769C42.2151 21.3471 43 18.6364 43 15.7427C43 7.04826 35.9216 0 27.1899 0C24.0439 0 21.1241 0.903626 18.6697 2.472C17.9139 2.95502 18.2695 4.0696 19.1521 4.22951C28.0113 5.83449 34.2545 13.6613 34.2157 22.2574C34.2189 24.3597 33.8548 26.4467 33.1434 28.4279C32.8397 29.2737 33.6314 30.1458 34.4318 29.7373C34.6055 29.6487 34.7765 29.5573 34.9445 29.4633C35.1406 29.3536 35.3697 29.3184 35.5903 29.3618L41.3696 30.4993C42.091 30.6413 42.6944 29.9492 42.4518 29.258L40.7702 24.4655Z" fill="#FF7F30"/>
</svg>
