<svg width="25" height="33" viewBox="0 0 25 33" fill="none" xmlns="http://www.w3.org/2000/svg">
<path fill-rule="evenodd" clip-rule="evenodd" d="M15.3291 0H4.29609C1.92124 0 -4.16947e-05 1.92128 6.78638e-10 4.29609V28.7039C6.78638e-10 31.0787 1.92128 33 4.29609 33H20.392C22.7586 33 24.6799 31.0787 24.6799 28.7039V9.74664L15.3291 0ZM7.17575 20.12L5.33575 23H6.71975L7.95175 20.92L9.18375 23H10.5758L8.73575 20.12L10.4958 17.4H9.13575L7.97575 19.336L6.81575 17.4H5.41575L7.17575 20.12ZM10.9583 23V17.4H12.1903V21.888H14.7343V23H10.9583ZM15.9204 22.88C16.2564 23.0133 16.6324 23.08 17.0484 23.08C17.5338 23.08 17.9471 23.0053 18.2884 22.856C18.6351 22.7067 18.8964 22.5013 19.0724 22.24C19.2538 21.9733 19.3444 21.6773 19.3444 21.352C19.3444 20.968 19.2511 20.6693 19.0644 20.456C18.8831 20.2373 18.6618 20.08 18.4004 19.984C18.1444 19.8827 17.8191 19.7893 17.4244 19.704C17.1418 19.6453 16.9231 19.592 16.7684 19.544C16.6138 19.4907 16.4858 19.4187 16.3844 19.328C16.2831 19.2373 16.2324 19.1173 16.2324 18.968C16.2324 18.8613 16.2618 18.7653 16.3204 18.68C16.3844 18.5893 16.4804 18.5173 16.6084 18.464C16.7418 18.4107 16.9018 18.384 17.0884 18.384C17.3444 18.384 17.5498 18.4373 17.7044 18.544C17.8591 18.6453 17.9551 18.7893 17.9924 18.976H19.2244C19.1818 18.6507 19.0751 18.3653 18.9044 18.12C18.7338 17.8693 18.4911 17.6747 18.1764 17.536C17.8671 17.392 17.4911 17.32 17.0484 17.32C16.6538 17.32 16.2991 17.384 15.9844 17.512C15.6698 17.6347 15.4191 17.8213 15.2324 18.072C15.0511 18.3173 14.9604 18.616 14.9604 18.968C14.9604 19.3787 15.0538 19.6987 15.2404 19.928C15.4324 20.1573 15.6591 20.32 15.9204 20.416C16.1871 20.512 16.5231 20.6 16.9284 20.68C17.2004 20.7333 17.4084 20.7813 17.5524 20.824C17.7018 20.8667 17.8244 20.9307 17.9204 21.016C18.0218 21.1013 18.0724 21.2133 18.0724 21.352C18.0724 21.4853 18.0378 21.6027 17.9684 21.704C17.8991 21.8 17.7898 21.8773 17.6404 21.936C17.4911 21.9893 17.2938 22.016 17.0484 22.016C16.7551 22.016 16.5151 21.9547 16.3284 21.832C16.1418 21.704 16.0298 21.528 15.9924 21.304H14.7604C14.7924 21.688 14.9098 22.0133 15.1124 22.28C15.3204 22.5467 15.5898 22.7467 15.9204 22.88Z" fill="#008145"/>
<path opacity="0.302" fill-rule="evenodd" clip-rule="evenodd" d="M15.3203 0V9.67242H24.6794L15.3203 0Z" fill="white"/>
</svg>
