<svg preserveAspectRatio="none" width="100%" height="100%" overflow="visible" style="display: block;" viewBox="0 0 48 48" fill="none" xmlns="http://www.w3.org/2000/svg">
<g id="Dialog 8">
<rect width="48" height="48" rx="24" fill="var(--fill-0, #FF7F30)"/>
<g id="Vector">
<path d="M23.8185 23.4876C25.7222 23.4876 27.3706 22.8231 28.7175 21.5118C30.0644 20.2008 30.7472 18.5968 30.7472 16.7436C30.7472 14.8911 30.0644 13.2868 28.7173 11.9754C27.3702 10.6646 25.722 10 23.8185 10C21.9146 10 20.2666 10.6646 18.9197 11.9756C17.5728 13.2866 16.8898 14.8909 16.8898 16.7436C16.8898 18.5968 17.5728 20.2011 18.9199 21.5121C20.267 22.8228 21.9152 23.4876 23.8185 23.4876Z" fill="var(--fill-0, white)"/>
<path d="M35.9418 31.5305C35.903 30.9849 35.8244 30.3897 35.7088 29.7613C35.592 29.1281 35.4417 28.5295 35.2617 27.9824C35.0758 27.417 34.823 26.8586 34.5105 26.3235C34.1861 25.768 33.8051 25.2844 33.3775 24.8864C32.9305 24.4701 32.3831 24.1353 31.7502 23.8912C31.1194 23.6483 30.4204 23.5252 29.6727 23.5252C29.379 23.5252 29.095 23.6425 28.5466 23.9901C28.209 24.2043 27.8142 24.4521 27.3735 24.7262C26.9967 24.9599 26.4862 25.1789 25.8556 25.3771C25.2404 25.5709 24.6158 25.6691 23.9993 25.6691C23.3828 25.6691 22.7585 25.5709 22.1426 25.3771C21.5127 25.1791 21.0022 24.9601 20.6259 24.7264C20.1893 24.4549 19.7943 24.2071 19.4517 23.9899C18.9039 23.6423 18.6197 23.525 18.326 23.525C17.5781 23.525 16.8793 23.6483 16.2487 23.8914C15.6162 24.1351 15.0686 24.4699 14.6211 24.8866C14.1938 25.2848 13.8126 25.7683 13.4887 26.3235C13.1764 26.8586 12.9235 27.4168 12.7374 27.9827C12.5577 28.5297 12.4073 29.1281 12.2906 29.7613C12.1749 30.3889 12.0963 30.9842 12.0575 31.5311C12.0193 32.0669 12 32.6229 12 33.1845C12 34.6461 12.4773 35.8294 13.4187 36.702C14.3483 37.5631 15.5785 38 17.0744 38H30.9256C32.4215 38 33.6512 37.5634 34.5811 36.702C35.5227 35.83 36 34.6466 36 33.1843C35.9998 32.6202 35.9802 32.0637 35.9418 31.5305Z" fill="var(--fill-0, white)"/>
</g>
</g>
</svg>
