<svg preserveAspectRatio="none" width="100%" height="100%" overflow="visible" style="display: block;" viewBox="0 0 48 48" fill="none" xmlns="http://www.w3.org/2000/svg">
<g id="Dialog 7">
<rect width="48" height="48" rx="24" fill="var(--fill-0, #FF7F30)"/>
<g id="Vector">
<path d="M10 18.4761V19.8625C10 20.4919 10.5159 21.0022 11.1524 21.0022H12.5541C13.1906 21.0022 13.7065 20.4919 13.7065 19.8625V18.4761C13.7065 17.8467 13.1906 17.3364 12.5541 17.3364H11.1524C10.5159 17.3364 10 17.8467 10 18.4761Z" fill="var(--fill-0, white)"/>
<path d="M10 22.1418V23.5282C10 24.1576 10.5159 24.6679 11.1524 24.6679H12.5541C13.1906 24.6679 13.7065 24.1576 13.7065 23.5282V22.1418C13.7065 21.5124 13.1906 21.0022 12.5541 21.0022H11.1524C10.5159 21.0022 10 21.5124 10 22.1418Z" fill="var(--fill-0, white)"/>
<path d="M10 25.8076V27.194C10 27.8234 10.5159 28.3336 11.1524 28.3336H12.5541C13.1906 28.3336 13.7065 27.8234 13.7065 27.194V25.8076C13.7065 25.1782 13.1906 24.6679 12.5541 24.6679H11.1524C10.5159 24.6679 10 25.1782 10 25.8076Z" fill="var(--fill-0, white)"/>
<path d="M10 29.4734V30.8597C10 31.4892 10.5159 31.9994 11.1524 31.9994H12.5541C13.1906 31.9994 13.7065 31.4892 13.7065 30.8597V29.4734C13.7065 28.8439 13.1906 28.3336 12.5541 28.3336H11.1524C10.5159 28.3336 10 28.8439 10 29.4734Z" fill="var(--fill-0, white)"/>
<path d="M13.7068 14.8103V16.1967C13.7068 16.8262 14.2228 17.3364 14.8592 17.3364H16.261C16.8974 17.3364 17.4133 16.8262 17.4133 16.1967V14.8103C17.4133 14.1809 16.8974 13.6707 16.261 13.6707H14.8592C14.2228 13.6707 13.7068 14.1809 13.7068 14.8103Z" fill="var(--fill-0, white)"/>
<path d="M13.7118 18.4761V19.8625C13.7118 20.4919 14.2278 21.0022 14.8642 21.0022H16.266C16.9024 21.0022 17.4184 20.4919 17.4184 19.8625V18.4761C17.4184 17.8467 16.9024 17.3364 16.266 17.3364H14.8642C14.2278 17.3364 13.7118 17.8467 13.7118 18.4761Z" fill="var(--fill-0, white)"/>
<path d="M13.7065 22.1418V23.5282C13.7065 24.1576 14.2228 24.6679 14.8592 24.6679H16.261C16.8974 24.6679 17.4133 24.1576 17.4133 23.5282V22.1418C17.4133 21.5124 16.8974 21.0021 16.261 21.0021H14.8592C14.2228 21.0021 13.7065 21.5124 13.7065 22.1418Z" fill="var(--fill-0, white)"/>
<path d="M13.7065 25.8076V27.194C13.7065 27.8234 14.2228 28.3337 14.8592 28.3337H16.261C16.8974 28.3337 17.4134 27.8234 17.4134 27.194V25.8076C17.4134 25.1782 16.8974 24.6679 16.261 24.6679H14.8592C14.2228 24.6679 13.7065 25.1782 13.7065 25.8076Z" fill="var(--fill-0, white)"/>
<path d="M17.4124 14.8103V16.1967C17.4124 16.8262 17.9284 17.3364 18.5648 17.3364H19.9666C20.603 17.3364 21.1189 16.8262 21.1189 16.1967V14.8103C21.1189 14.1809 20.603 13.6707 19.9666 13.6707H18.5648C17.9284 13.6707 17.4124 14.1809 17.4124 14.8103Z" fill="var(--fill-0, white)"/>
<path d="M17.4124 11.1446V12.531C17.4124 13.1604 17.9284 13.6707 18.5648 13.6707H19.9666C20.603 13.6707 21.1189 13.1604 21.1189 12.531V11.1446C21.1189 10.5151 20.603 10.0049 19.9666 10.0049H18.5648C17.9284 10.0049 17.4124 10.5151 17.4124 11.1446Z" fill="var(--fill-0, white)"/>
<path d="M17.4174 18.4761V19.8625C17.4174 20.4919 17.9334 21.0022 18.5698 21.0022H19.9716C20.608 21.0022 21.124 20.4919 21.124 19.8625V18.4761C21.124 17.8467 20.608 17.3364 19.9716 17.3364H18.5698C17.9334 17.3364 17.4174 17.8467 17.4174 18.4761Z" fill="var(--fill-0, white)"/>
<path d="M21.1193 14.8054V16.1918C21.1193 16.8212 21.6352 17.3315 22.2717 17.3315H23.6734C24.3099 17.3315 24.8258 16.8212 24.8258 16.1918V14.8054C24.8258 14.1759 24.3099 13.6657 23.6734 13.6657H22.2717C21.6352 13.6657 21.1193 14.1759 21.1193 14.8054Z" fill="var(--fill-0, white)"/>
<path d="M21.1243 11.1397V12.526C21.1243 13.1555 21.6402 13.6657 22.2767 13.6657H23.6784C24.3149 13.6657 24.8308 13.1555 24.8308 12.526V11.1397C24.8308 10.5102 24.3149 9.99997 23.6784 9.99997H22.2767C21.6402 9.99997 21.1243 10.5102 21.1243 11.1397Z" fill="var(--fill-0, white)"/>
<path d="M21.1243 18.4711V19.8575C21.1243 20.487 21.6402 20.9972 22.2767 20.9972H23.6784C24.3149 20.9972 24.8308 20.487 24.8308 19.8575V18.4711C24.8308 17.8417 24.3149 17.3315 23.6784 17.3315H22.2767C21.6402 17.3315 21.1243 17.8417 21.1243 18.4711Z" fill="var(--fill-0, white)"/>
<path d="M24.8308 11.1397V12.526C24.8308 13.1555 25.3471 13.6657 25.9835 13.6657H27.3853C28.0217 13.6657 28.5376 13.1555 28.5376 12.526V11.1397C28.5376 10.5102 28.0217 9.99998 27.3853 9.99998H25.9835C25.3471 9.99998 24.8308 10.5102 24.8308 11.1397Z" fill="var(--fill-0, white)"/>
<path d="M14.1156 33.2921V34.3775C14.1156 34.868 14.5176 35.2656 15.0135 35.2656H16.111C16.6069 35.2656 17.0089 34.868 17.0089 34.3775V33.2921C17.0089 32.8016 16.6069 32.404 16.111 32.404H15.0135C14.5176 32.404 14.1156 32.8016 14.1156 33.2921Z" fill="var(--fill-0, white)"/>
<path d="M14.1156 29.6263V30.7117C14.1156 31.2022 14.5176 31.5998 15.0135 31.5998H16.111C16.6069 31.5998 17.0089 31.2022 17.0089 30.7117V29.6263C17.0089 29.1358 16.6069 28.7382 16.111 28.7382H15.0135C14.5176 28.7382 14.1156 29.1358 14.1156 29.6263Z" fill="var(--fill-0, white)"/>
<path d="M18.1411 33.4154V34.2591C18.1411 34.6406 18.4538 34.9498 18.8395 34.9498H19.6925C20.0782 34.9498 20.3909 34.6406 20.3909 34.2591V33.4154C20.3909 33.0339 20.0782 32.7247 19.6925 32.7247H18.8395C18.4538 32.7247 18.1411 33.0339 18.1411 33.4154Z" fill="var(--fill-0, white)"/>
<path d="M18.5797 37.244V37.7571C18.5797 37.9914 18.7718 38.1814 19.0088 38.1814H19.5276C19.7645 38.1814 19.9566 37.9914 19.9566 37.7571V37.244C19.9566 37.0096 19.7645 36.8197 19.5276 36.8197H19.0088C18.7718 36.8197 18.5797 37.0096 18.5797 37.244Z" fill="var(--fill-0, white)"/>
<path d="M17.4174 22.1418V23.5282C17.4174 24.1576 17.9334 24.6679 18.5698 24.6679H19.9716C20.608 24.6679 21.1239 24.1576 21.1239 23.5282V22.1418C21.1239 21.5124 20.608 21.0022 19.9716 21.0022H18.5698C17.9334 21.0022 17.4174 21.5124 17.4174 22.1418Z" fill="var(--fill-0, white)"/>
<path d="M17.8224 25.9605V27.0459C17.8224 27.5364 18.2244 27.934 18.7203 27.934H19.8178C20.3137 27.934 20.7157 27.5364 20.7157 27.0459V25.9605C20.7157 25.47 20.3137 25.0724 19.8178 25.0724H18.7203C18.2244 25.0724 17.8224 25.47 17.8224 25.9605Z" fill="var(--fill-0, white)"/>
<path d="M17.8224 29.6263V30.7117C17.8224 31.2022 18.2244 31.5998 18.7203 31.5998H19.8178C20.3137 31.5998 20.7157 31.2022 20.7157 30.7117V29.6263C20.7157 29.1358 20.3137 28.7382 19.8178 28.7382H18.7203C18.2244 28.7382 17.8224 29.1358 17.8224 29.6263Z" fill="var(--fill-0, white)"/>
<path d="M21.8478 33.4104V34.2541C21.8478 34.6356 22.1605 34.9448 22.5462 34.9448H23.3993C23.785 34.9448 24.0977 34.6356 24.0977 34.2541V33.4104C24.0977 33.029 23.785 32.7197 23.3993 32.7197H22.5462C22.1605 32.7197 21.8478 33.029 21.8478 33.4104Z" fill="var(--fill-0, white)"/>
<path d="M22.2866 37.2489V37.762C22.2866 37.9963 22.4787 38.1863 22.7156 38.1863H23.2344C23.4714 38.1863 23.6634 37.9963 23.6634 37.762V37.2489C23.6634 37.0146 23.4714 36.8246 23.2344 36.8246H22.7156C22.4787 36.8246 22.2866 37.0146 22.2866 37.2489Z" fill="var(--fill-0, white)"/>
<path d="M21.528 22.2948V23.3802C21.528 23.8707 21.93 24.2683 22.4259 24.2683H23.5234C24.0193 24.2683 24.4213 23.8707 24.4213 23.3802V22.2948C24.4213 21.8043 24.0193 21.4067 23.5234 21.4067H22.4259C21.93 21.4067 21.528 21.8043 21.528 22.2948Z" fill="var(--fill-0, white)"/>
<path d="M21.533 25.9605V27.0459C21.533 27.5364 21.935 27.934 22.4309 27.934H23.5284C24.0243 27.934 24.4263 27.5364 24.4263 27.0459V25.9605C24.4263 25.47 24.0243 25.0725 23.5284 25.0725H22.4309C21.935 25.0725 21.533 25.47 21.533 25.9605Z" fill="var(--fill-0, white)"/>
<path d="M21.8478 29.7447V30.5884C21.8478 30.9699 22.1605 31.2791 22.5462 31.2791H23.3993C23.785 31.2791 24.0977 30.9699 24.0977 30.5884V29.7447C24.0977 29.3632 23.785 29.054 23.3993 29.054H22.5462C22.1605 29.054 21.8478 29.3632 21.8478 29.7447Z" fill="var(--fill-0, white)"/>
<path d="M25.9933 33.5782V34.0913C25.9933 34.3257 26.1854 34.5156 26.4223 34.5156H26.9411C27.1781 34.5156 27.3702 34.3257 27.3702 34.0913V33.5782C27.3702 33.3439 27.1781 33.1539 26.9411 33.1539H26.4223C26.1854 33.1539 25.9933 33.3439 25.9933 33.5782Z" fill="var(--fill-0, white)"/>
<path d="M25.9933 37.244V37.7571C25.9933 37.9914 26.1854 38.1814 26.4223 38.1814H26.9411C27.1781 38.1814 27.3702 37.9914 27.3702 37.7571V37.244C27.3702 37.0096 27.1781 36.8197 26.9411 36.8197H26.4223C26.1854 36.8197 25.9933 37.0096 25.9933 37.244Z" fill="var(--fill-0, white)"/>
<path d="M25.2398 14.9534V16.0388C25.2398 16.5293 25.6418 16.9269 26.1378 16.9269H27.2352C27.7312 16.9269 28.1332 16.5293 28.1332 16.0388V14.9534C28.1332 14.463 27.7312 14.0654 27.2352 14.0654H26.1378C25.6418 14.0654 25.2398 14.463 25.2398 14.9534Z" fill="var(--fill-0, white)"/>
<path d="M25.2348 18.6241V19.7095C25.2348 20.2 25.6369 20.5976 26.1328 20.5976H27.2303C27.7262 20.5976 28.1282 20.2 28.1282 19.7095V18.6241C28.1282 18.1336 27.7262 17.736 27.2303 17.736H26.1328C25.6369 17.736 25.2348 18.1336 25.2348 18.6241Z" fill="var(--fill-0, white)"/>
<path d="M25.2348 22.2899V23.3753C25.2348 23.8658 25.6369 24.2634 26.1328 24.2634H27.2303C27.7262 24.2634 28.1282 23.8658 28.1282 23.3753V22.2899C28.1282 21.7994 27.7262 21.4018 27.2303 21.4018H26.1328C25.6369 21.4018 25.2348 21.7994 25.2348 22.2899Z" fill="var(--fill-0, white)"/>
<path d="M25.5598 26.0789V26.9226C25.5598 27.3041 25.8725 27.6133 26.2582 27.6133H27.1112C27.4969 27.6133 27.8096 27.3041 27.8096 26.9226V26.0789C27.8096 25.6975 27.4969 25.3882 27.1112 25.3882H26.2582C25.8725 25.3882 25.5598 25.6975 25.5598 26.0789Z" fill="var(--fill-0, white)"/>
<path d="M25.5598 29.7447V30.5884C25.5598 30.9698 25.8725 31.2791 26.2582 31.2791H27.1112C27.4969 31.2791 27.8096 30.9698 27.8096 30.5884V29.7447C27.8096 29.3632 27.4969 29.054 27.1112 29.054H26.2582C25.8725 29.054 25.5598 29.3632 25.5598 29.7447Z" fill="var(--fill-0, white)"/>
<path d="M29.7053 33.5782V34.0913C29.7053 34.3257 29.8974 34.5156 30.1343 34.5156H30.6531C30.8901 34.5156 31.0821 34.3257 31.0821 34.0913V33.5782C31.0821 33.3439 30.8901 33.1539 30.6531 33.1539H30.1343C29.8974 33.1539 29.7053 33.3439 29.7053 33.5782Z" fill="var(--fill-0, white)"/>
<path d="M29.7003 37.244V37.7571C29.7003 37.9914 29.8924 38.1814 30.1293 38.1814H30.6481C30.8851 38.1814 31.0771 37.9914 31.0771 37.7571V37.244C31.0771 37.0096 30.8851 36.8197 30.6481 36.8197H30.1293C29.8924 36.8197 29.7003 37.0096 29.7003 37.244Z" fill="var(--fill-0, white)"/>
<path d="M28.9467 14.9584V16.0438C28.9467 16.5343 29.3487 16.9319 29.8446 16.9319H30.9421C31.438 16.9319 31.84 16.5343 31.84 16.0438V14.9584C31.84 14.4679 31.438 14.0703 30.9421 14.0703H29.8446C29.3487 14.0703 28.9467 14.4679 28.9467 14.9584Z" fill="var(--fill-0, white)"/>
<path d="M28.9467 11.2876V12.373C28.9467 12.8635 29.3487 13.2611 29.8446 13.2611H30.9421C31.438 13.2611 31.84 12.8635 31.84 12.373V11.2876C31.84 10.7972 31.438 10.3996 30.9421 10.3996H29.8446C29.3487 10.3996 28.9467 10.7972 28.9467 11.2876Z" fill="var(--fill-0, white)"/>
<path d="M29.2654 18.7474V19.5911C29.2654 19.9726 29.5781 20.2818 29.9638 20.2818H30.8168C31.2025 20.2818 31.5152 19.9726 31.5152 19.5911V18.7474C31.5152 18.366 31.2025 18.0567 30.8168 18.0567H29.9638C29.5781 18.0567 29.2654 18.366 29.2654 18.7474Z" fill="var(--fill-0, white)"/>
<path d="M29.2654 22.4132V23.2569C29.2654 23.6384 29.5781 23.9476 29.9638 23.9476H30.8168C31.2025 23.9476 31.5152 23.6384 31.5152 23.2569V22.4132C31.5152 22.0317 31.2025 21.7225 30.8168 21.7225H29.9638C29.5781 21.7225 29.2654 22.0317 29.2654 22.4132Z" fill="var(--fill-0, white)"/>
<path d="M29.2654 26.0789V26.9226C29.2654 27.3041 29.5781 27.6133 29.9638 27.6133H30.8168C31.2025 27.6133 31.5152 27.3041 31.5152 26.9226V26.0789C31.5152 25.6975 31.2025 25.3882 30.8168 25.3882H29.9638C29.5781 25.3882 29.2654 25.6975 29.2654 26.0789Z" fill="var(--fill-0, white)"/>
<path d="M29.7053 29.9125V30.4256C29.7053 30.6599 29.8974 30.8499 30.1343 30.8499H30.6531C30.8901 30.8499 31.0821 30.6599 31.0821 30.4256V29.9125C31.0821 29.6781 30.8901 29.4882 30.6531 29.4882H30.1343C29.8974 29.4882 29.7053 29.6781 29.7053 29.9125Z" fill="var(--fill-0, white)"/>
<path d="M38.495 30.4256V29.9125C38.495 29.6782 38.3029 29.4882 38.066 29.4882H37.5472C37.3102 29.4882 37.1182 29.6782 37.1182 29.9125V30.4256C37.1182 30.6599 37.3102 30.8499 37.5472 30.8499H38.066C38.3029 30.8499 38.495 30.6599 38.495 30.4256Z" fill="var(--fill-0, white)"/>
<path d="M38.495 26.7549V26.2418C38.495 26.0074 38.3029 25.8175 38.066 25.8175H37.5472C37.3102 25.8175 37.1182 26.0074 37.1182 26.2418V26.7549C37.1182 26.9892 37.3102 27.1792 37.5472 27.1792H38.066C38.3029 27.1792 38.495 26.9892 38.495 26.7549Z" fill="var(--fill-0, white)"/>
<path d="M38.5 23.0891V22.576C38.5 22.3417 38.3079 22.1517 38.071 22.1517H37.5522C37.3152 22.1517 37.1232 22.3417 37.1232 22.576V23.0891C37.1232 23.3234 37.3152 23.5134 37.5522 23.5134H38.071C38.3079 23.5134 38.5 23.3234 38.5 23.0891Z" fill="var(--fill-0, white)"/>
<path d="M38.495 19.4234V18.9103C38.495 18.6759 38.3029 18.486 38.066 18.486H37.5472C37.3102 18.486 37.1182 18.6759 37.1182 18.9103V19.4234C37.1182 19.6577 37.3102 19.8477 37.5472 19.8477H38.066C38.3029 19.8477 38.495 19.6577 38.495 19.4234Z" fill="var(--fill-0, white)"/>
<path d="M35.2268 15.9205V15.0768C35.2268 14.6953 34.9141 14.3861 34.5284 14.3861H33.6754C33.2897 14.3861 32.977 14.6953 32.977 15.0768V15.9205C32.977 16.3019 33.2897 16.6112 33.6754 16.6112H34.5284C34.9141 16.6112 35.2268 16.3019 35.2268 15.9205Z" fill="var(--fill-0, white)"/>
<path d="M34.7881 34.0913V33.5782C34.7881 33.3439 34.596 33.1539 34.3591 33.1539H33.8403C33.6034 33.1539 33.4113 33.3439 33.4113 33.5782V34.0913C33.4113 34.3257 33.6034 34.5156 33.8403 34.5156H34.3591C34.596 34.5156 34.7881 34.3257 34.7881 34.0913Z" fill="var(--fill-0, white)"/>
<path d="M34.7881 30.4256V29.9125C34.7881 29.6781 34.596 29.4882 34.3591 29.4882H33.8403C33.6034 29.4882 33.4113 29.6781 33.4113 29.9125V30.4256C33.4113 30.6599 33.6034 30.8499 33.8403 30.8499H34.3591C34.596 30.8499 34.7881 30.6599 34.7881 30.4256Z" fill="var(--fill-0, white)"/>
<path d="M34.7881 26.7598V26.2467C34.7881 26.0124 34.596 25.8224 34.3591 25.8224H33.8403C33.6034 25.8224 33.4113 26.0124 33.4113 26.2467V26.7598C33.4113 26.9942 33.6034 27.1841 33.8403 27.1841H34.3591C34.596 27.1841 34.7881 26.9942 34.7881 26.7598Z" fill="var(--fill-0, white)"/>
<path d="M34.7881 23.0891V22.576C34.7881 22.3417 34.596 22.1517 34.3591 22.1517H33.8403C33.6034 22.1517 33.4113 22.3417 33.4113 22.576V23.0891C33.4113 23.3234 33.6034 23.5134 33.8403 23.5134H34.3591C34.596 23.5134 34.7881 23.3234 34.7881 23.0891Z" fill="var(--fill-0, white)"/>
<path d="M35.2268 19.5861V18.7425C35.2268 18.361 34.9141 18.0518 34.5284 18.0518H33.6754C33.2897 18.0518 32.977 18.361 32.977 18.7425V19.5861C32.977 19.9676 33.2897 20.2769 33.6754 20.2769H34.5284C34.9141 20.2769 35.2268 19.9676 35.2268 19.5861Z" fill="var(--fill-0, white)"/>
</g>
<g id="Vector_2">
<path d="M10 18.4762V19.8625C10 20.492 10.5159 21.0022 11.1524 21.0022H12.5541C13.1906 21.0022 13.7065 20.492 13.7065 19.8625V18.4762C13.7065 17.8467 13.1906 17.3365 12.5541 17.3365H11.1524C10.5159 17.3365 10 17.8467 10 18.4762Z" fill="var(--fill-0, white)"/>
<path d="M10 22.1418V23.5282C10 24.1577 10.5159 24.6679 11.1524 24.6679H12.5541C13.1906 24.6679 13.7065 24.1577 13.7065 23.5282V22.1418C13.7065 21.5124 13.1906 21.0022 12.5541 21.0022H11.1524C10.5159 21.0022 10 21.5124 10 22.1418Z" fill="var(--fill-0, white)"/>
<path d="M10 25.8076V27.194C10 27.8234 10.5159 28.3337 11.1524 28.3337H12.5541C13.1906 28.3337 13.7065 27.8234 13.7065 27.194V25.8076C13.7065 25.1782 13.1906 24.6679 12.5541 24.6679H11.1524C10.5159 24.6679 10 25.1782 10 25.8076Z" fill="var(--fill-0, white)"/>
<path d="M10 29.4734V30.8598C10 31.4892 10.5159 31.9995 11.1524 31.9995H12.5541C13.1906 31.9995 13.7065 31.4892 13.7065 30.8598V29.4734C13.7065 28.844 13.1906 28.3337 12.5541 28.3337H11.1524C10.5159 28.3337 10 28.844 10 29.4734Z" fill="var(--fill-0, white)"/>
<path d="M13.7068 14.8104V16.1968C13.7068 16.8262 14.2228 17.3364 14.8592 17.3364H16.261C16.8974 17.3364 17.4133 16.8262 17.4133 16.1968V14.8104C17.4133 14.1809 16.8974 13.6707 16.261 13.6707H14.8592C14.2228 13.6707 13.7068 14.1809 13.7068 14.8104Z" fill="var(--fill-0, white)"/>
<path d="M13.7118 18.4761V19.8625C13.7118 20.4919 14.2278 21.0022 14.8642 21.0022H16.266C16.9024 21.0022 17.4184 20.4919 17.4184 19.8625V18.4761C17.4184 17.8467 16.9024 17.3365 16.266 17.3365H14.8642C14.2278 17.3365 13.7118 17.8467 13.7118 18.4761Z" fill="var(--fill-0, white)"/>
<path d="M13.7065 22.1418V23.5282C13.7065 24.1577 14.2228 24.6679 14.8592 24.6679H16.261C16.8974 24.6679 17.4133 24.1577 17.4133 23.5282V22.1419C17.4133 21.5124 16.8974 21.0022 16.261 21.0022H14.8592C14.2228 21.0022 13.7065 21.5124 13.7065 22.1418Z" fill="var(--fill-0, white)"/>
<path d="M13.7065 25.8076V27.194C13.7065 27.8234 14.2228 28.3337 14.8592 28.3337H16.261C16.8974 28.3337 17.4134 27.8234 17.4134 27.194V25.8076C17.4134 25.1782 16.8974 24.6679 16.261 24.6679H14.8592C14.2228 24.6679 13.7065 25.1782 13.7065 25.8076Z" fill="var(--fill-0, white)"/>
<path d="M17.4124 14.8104V16.1968C17.4124 16.8262 17.9284 17.3364 18.5648 17.3364H19.9666C20.603 17.3364 21.1189 16.8262 21.1189 16.1968V14.8104C21.1189 14.1809 20.603 13.6707 19.9666 13.6707H18.5648C17.9284 13.6707 17.4124 14.1809 17.4124 14.8104Z" fill="var(--fill-0, white)"/>
<path d="M17.4124 11.1446V12.531C17.4124 13.1604 17.9284 13.6707 18.5648 13.6707H19.9666C20.603 13.6707 21.1189 13.1604 21.1189 12.531V11.1446C21.1189 10.5152 20.603 10.0049 19.9666 10.0049H18.5648C17.9284 10.0049 17.4124 10.5152 17.4124 11.1446Z" fill="var(--fill-0, white)"/>
<path d="M17.4174 18.4761V19.8625C17.4174 20.4919 17.9334 21.0022 18.5698 21.0022H19.9716C20.608 21.0022 21.124 20.4919 21.124 19.8625V18.4761C21.124 17.8467 20.608 17.3365 19.9716 17.3365H18.5698C17.9334 17.3365 17.4174 17.8467 17.4174 18.4761Z" fill="var(--fill-0, white)"/>
<path d="M21.1193 14.8054V16.1918C21.1193 16.8212 21.6352 17.3315 22.2717 17.3315H23.6734C24.3099 17.3315 24.8258 16.8212 24.8258 16.1918V14.8054C24.8258 14.176 24.3099 13.6657 23.6734 13.6657H22.2717C21.6352 13.6657 21.1193 14.176 21.1193 14.8054Z" fill="var(--fill-0, white)"/>
<path d="M21.1243 11.1397V12.5261C21.1243 13.1555 21.6402 13.6658 22.2767 13.6658H23.6784C24.3149 13.6658 24.8308 13.1555 24.8308 12.5261V11.1397C24.8308 10.5103 24.3149 10 23.6784 10H22.2767C21.6402 10 21.1243 10.5103 21.1243 11.1397Z" fill="var(--fill-0, white)"/>
<path d="M21.1243 18.4712V19.8575C21.1243 20.487 21.6402 20.9972 22.2767 20.9972H23.6784C24.3149 20.9972 24.8308 20.487 24.8308 19.8575V18.4712C24.8308 17.8417 24.3149 17.3315 23.6784 17.3315H22.2767C21.6402 17.3315 21.1243 17.8417 21.1243 18.4712Z" fill="var(--fill-0, white)"/>
<path d="M24.8308 11.1397V12.5261C24.8308 13.1555 25.3471 13.6658 25.9835 13.6658H27.3853C28.0217 13.6658 28.5376 13.1555 28.5376 12.5261V11.1397C28.5376 10.5103 28.0217 10 27.3853 10H25.9835C25.3471 10 24.8308 10.5103 24.8308 11.1397Z" fill="var(--fill-0, white)"/>
<path d="M14.1156 33.2921V34.3775C14.1156 34.868 14.5176 35.2656 15.0135 35.2656H16.111C16.6069 35.2656 17.0089 34.868 17.0089 34.3775V33.2921C17.0089 32.8016 16.6069 32.404 16.111 32.404H15.0135C14.5176 32.404 14.1156 32.8016 14.1156 33.2921Z" fill="var(--fill-0, white)"/>
<path d="M14.1156 29.6263V30.7117C14.1156 31.2022 14.5176 31.5998 15.0135 31.5998H16.111C16.6069 31.5998 17.0089 31.2022 17.0089 30.7117V29.6263C17.0089 29.1359 16.6069 28.7383 16.111 28.7383H15.0135C14.5176 28.7383 14.1156 29.1359 14.1156 29.6263Z" fill="var(--fill-0, white)"/>
<path d="M18.1411 33.4154V34.2591C18.1411 34.6406 18.4538 34.9498 18.8395 34.9498H19.6925C20.0782 34.9498 20.3909 34.6406 20.3909 34.2591V33.4154C20.3909 33.034 20.0782 32.7247 19.6925 32.7247H18.8395C18.4538 32.7247 18.1411 33.034 18.1411 33.4154Z" fill="var(--fill-0, white)"/>
<path d="M18.5797 37.244V37.7571C18.5797 37.9915 18.7718 38.1814 19.0088 38.1814H19.5276C19.7645 38.1814 19.9566 37.9915 19.9566 37.7571V37.244C19.9566 37.0097 19.7645 36.8197 19.5276 36.8197H19.0088C18.7718 36.8197 18.5797 37.0097 18.5797 37.244Z" fill="var(--fill-0, white)"/>
<path d="M17.4174 22.1419V23.5282C17.4174 24.1577 17.9334 24.6679 18.5698 24.6679H19.9716C20.608 24.6679 21.1239 24.1577 21.1239 23.5282V22.1419C21.1239 21.5124 20.608 21.0022 19.9716 21.0022H18.5698C17.9334 21.0022 17.4174 21.5124 17.4174 22.1419Z" fill="var(--fill-0, white)"/>
<path d="M17.8224 25.9605V27.046C17.8224 27.5364 18.2244 27.934 18.7203 27.934H19.8178C20.3137 27.934 20.7157 27.5364 20.7157 27.046V25.9605C20.7157 25.4701 20.3137 25.0725 19.8178 25.0725H18.7203C18.2244 25.0725 17.8224 25.4701 17.8224 25.9605Z" fill="var(--fill-0, white)"/>
<path d="M17.8224 29.6263V30.7117C17.8224 31.2022 18.2244 31.5998 18.7203 31.5998H19.8178C20.3137 31.5998 20.7157 31.2022 20.7157 30.7117V29.6263C20.7157 29.1358 20.3137 28.7382 19.8178 28.7382H18.7203C18.2244 28.7382 17.8224 29.1358 17.8224 29.6263Z" fill="var(--fill-0, white)"/>
<path d="M21.8478 33.4105V34.2541C21.8478 34.6356 22.1605 34.9449 22.5462 34.9449H23.3993C23.785 34.9449 24.0977 34.6356 24.0977 34.2541V33.4105C24.0977 33.029 23.785 32.7198 23.3993 32.7198H22.5462C22.1605 32.7198 21.8478 33.029 21.8478 33.4105Z" fill="var(--fill-0, white)"/>
<path d="M22.2866 37.2489V37.762C22.2866 37.9964 22.4787 38.1863 22.7156 38.1863H23.2344C23.4714 38.1863 23.6634 37.9964 23.6634 37.762V37.2489C23.6634 37.0146 23.4714 36.8246 23.2344 36.8246H22.7156C22.4787 36.8246 22.2866 37.0146 22.2866 37.2489Z" fill="var(--fill-0, white)"/>
<path d="M21.528 22.2948V23.3802C21.528 23.8707 21.93 24.2683 22.4259 24.2683H23.5234C24.0193 24.2683 24.4213 23.8707 24.4213 23.3802V22.2948C24.4213 21.8044 24.0193 21.4068 23.5234 21.4068H22.4259C21.93 21.4068 21.528 21.8044 21.528 22.2948Z" fill="var(--fill-0, white)"/>
<path d="M21.533 25.9605V27.046C21.533 27.5364 21.935 27.934 22.4309 27.934H23.5284C24.0243 27.934 24.4263 27.5364 24.4263 27.046V25.9605C24.4263 25.4701 24.0243 25.0725 23.5284 25.0725H22.4309C21.935 25.0725 21.533 25.4701 21.533 25.9605Z" fill="var(--fill-0, white)"/>
<path d="M21.8478 29.7447V30.5884C21.8478 30.9699 22.1605 31.2791 22.5462 31.2791H23.3993C23.785 31.2791 24.0977 30.9699 24.0977 30.5884V29.7447C24.0977 29.3633 23.785 29.054 23.3993 29.054H22.5462C22.1605 29.054 21.8478 29.3633 21.8478 29.7447Z" fill="var(--fill-0, white)"/>
<path d="M25.9933 33.5783V34.0914C25.9933 34.3257 26.1854 34.5157 26.4223 34.5157H26.9411C27.1781 34.5157 27.3702 34.3257 27.3702 34.0914V33.5783C27.3702 33.3439 27.1781 33.154 26.9411 33.154H26.4223C26.1854 33.154 25.9933 33.3439 25.9933 33.5783Z" fill="var(--fill-0, white)"/>
<path d="M25.9933 37.244V37.7571C25.9933 37.9914 26.1854 38.1814 26.4223 38.1814H26.9411C27.1781 38.1814 27.3702 37.9914 27.3702 37.7571V37.244C27.3702 37.0097 27.1781 36.8197 26.9411 36.8197H26.4223C26.1854 36.8197 25.9933 37.0097 25.9933 37.244Z" fill="var(--fill-0, white)"/>
<path d="M25.2398 14.9535V16.0389C25.2398 16.5293 25.6418 16.9269 26.1378 16.9269H27.2352C27.7312 16.9269 28.1332 16.5293 28.1332 16.0389V14.9535C28.1332 14.463 27.7312 14.0654 27.2352 14.0654H26.1378C25.6418 14.0654 25.2398 14.463 25.2398 14.9535Z" fill="var(--fill-0, white)"/>
<path d="M25.2348 18.6241V19.7096C25.2348 20.2 25.6369 20.5976 26.1328 20.5976H27.2303C27.7262 20.5976 28.1282 20.2 28.1282 19.7096V18.6241C28.1282 18.1337 27.7262 17.7361 27.2303 17.7361H26.1328C25.6369 17.7361 25.2348 18.1337 25.2348 18.6241Z" fill="var(--fill-0, white)"/>
<path d="M25.2348 22.2899V23.3753C25.2348 23.8658 25.6369 24.2634 26.1328 24.2634H27.2303C27.7262 24.2634 28.1282 23.8658 28.1282 23.3753V22.2899C28.1282 21.7994 27.7262 21.4018 27.2303 21.4018H26.1328C25.6369 21.4018 25.2348 21.7994 25.2348 22.2899Z" fill="var(--fill-0, white)"/>
<path d="M25.5598 26.079V26.9226C25.5598 27.3041 25.8725 27.6133 26.2582 27.6133H27.1112C27.4969 27.6133 27.8096 27.3041 27.8096 26.9226V26.079C27.8096 25.6975 27.4969 25.3882 27.1112 25.3882H26.2582C25.8725 25.3882 25.5598 25.6975 25.5598 26.079Z" fill="var(--fill-0, white)"/>
<path d="M25.5598 29.7447V30.5884C25.5598 30.9699 25.8725 31.2791 26.2582 31.2791H27.1112C27.4969 31.2791 27.8096 30.9699 27.8096 30.5884V29.7447C27.8096 29.3633 27.4969 29.054 27.1112 29.054H26.2582C25.8725 29.054 25.5598 29.3633 25.5598 29.7447Z" fill="var(--fill-0, white)"/>
<path d="M29.7053 33.5783V34.0914C29.7053 34.3257 29.8974 34.5157 30.1343 34.5157H30.6531C30.8901 34.5157 31.0821 34.3257 31.0821 34.0914V33.5783C31.0821 33.3439 30.8901 33.154 30.6531 33.154H30.1343C29.8974 33.154 29.7053 33.3439 29.7053 33.5783Z" fill="var(--fill-0, white)"/>
<path d="M29.7003 37.244V37.7571C29.7003 37.9915 29.8924 38.1814 30.1293 38.1814H30.6481C30.8851 38.1814 31.0771 37.9915 31.0771 37.7571V37.244C31.0771 37.0097 30.8851 36.8197 30.6481 36.8197H30.1293C29.8924 36.8197 29.7003 37.0097 29.7003 37.244Z" fill="var(--fill-0, white)"/>
<path d="M28.9467 14.9584V16.0438C28.9467 16.5343 29.3487 16.9319 29.8446 16.9319H30.9421C31.438 16.9319 31.84 16.5343 31.84 16.0438V14.9584C31.84 14.4679 31.438 14.0703 30.9421 14.0703H29.8446C29.3487 14.0703 28.9467 14.4679 28.9467 14.9584Z" fill="var(--fill-0, white)"/>
<path d="M28.9467 11.2877V12.3731C28.9467 12.8635 29.3487 13.2611 29.8446 13.2611H30.9421C31.438 13.2611 31.84 12.8635 31.84 12.3731V11.2877C31.84 10.7972 31.438 10.3996 30.9421 10.3996H29.8446C29.3487 10.3996 28.9467 10.7972 28.9467 11.2877Z" fill="var(--fill-0, white)"/>
<path d="M29.2654 18.7475V19.5911C29.2654 19.9726 29.5781 20.2819 29.9638 20.2819H30.8168C31.2025 20.2819 31.5152 19.9726 31.5152 19.5911V18.7475C31.5152 18.366 31.2025 18.0568 30.8168 18.0568H29.9638C29.5781 18.0568 29.2654 18.366 29.2654 18.7475Z" fill="var(--fill-0, white)"/>
<path d="M29.2654 22.4132V23.2569C29.2654 23.6384 29.5781 23.9476 29.9638 23.9476H30.8168C31.2025 23.9476 31.5152 23.6384 31.5152 23.2569V22.4132C31.5152 22.0318 31.2025 21.7225 30.8168 21.7225H29.9638C29.5781 21.7225 29.2654 22.0318 29.2654 22.4132Z" fill="var(--fill-0, white)"/>
<path d="M29.2654 26.079V26.9226C29.2654 27.3041 29.5781 27.6133 29.9638 27.6133H30.8168C31.2025 27.6133 31.5152 27.3041 31.5152 26.9226V26.079C31.5152 25.6975 31.2025 25.3882 30.8168 25.3882H29.9638C29.5781 25.3882 29.2654 25.6975 29.2654 26.079Z" fill="var(--fill-0, white)"/>
<path d="M29.7053 29.9125V30.4256C29.7053 30.6599 29.8974 30.8499 30.1343 30.8499H30.6531C30.8901 30.8499 31.0821 30.6599 31.0821 30.4256V29.9125C31.0821 29.6782 30.8901 29.4882 30.6531 29.4882H30.1343C29.8974 29.4882 29.7053 29.6782 29.7053 29.9125Z" fill="var(--fill-0, white)"/>
<path d="M38.495 30.4256V29.9125C38.495 29.6782 38.3029 29.4882 38.066 29.4882H37.5472C37.3102 29.4882 37.1182 29.6782 37.1182 29.9125V30.4256C37.1182 30.66 37.3102 30.8499 37.5472 30.8499H38.066C38.3029 30.8499 38.495 30.66 38.495 30.4256Z" fill="var(--fill-0, white)"/>
<path d="M38.495 26.7549V26.2418C38.495 26.0075 38.3029 25.8175 38.066 25.8175H37.5472C37.3102 25.8175 37.1182 26.0075 37.1182 26.2418V26.7549C37.1182 26.9892 37.3102 27.1792 37.5472 27.1792H38.066C38.3029 27.1792 38.495 26.9892 38.495 26.7549Z" fill="var(--fill-0, white)"/>
<path d="M38.5 23.0891V22.576C38.5 22.3417 38.3079 22.1517 38.071 22.1517H37.5522C37.3152 22.1517 37.1232 22.3417 37.1232 22.576V23.0891C37.1232 23.3235 37.3152 23.5134 37.5522 23.5134H38.071C38.3079 23.5134 38.5 23.3235 38.5 23.0891Z" fill="var(--fill-0, white)"/>
<path d="M38.495 19.4234V18.9103C38.495 18.676 38.3029 18.486 38.066 18.486H37.5472C37.3102 18.486 37.1182 18.676 37.1182 18.9103V19.4234C37.1182 19.6577 37.3102 19.8477 37.5472 19.8477H38.066C38.3029 19.8477 38.495 19.6577 38.495 19.4234Z" fill="var(--fill-0, white)"/>
<path d="M35.2268 15.9205V15.0768C35.2268 14.6954 34.9141 14.3861 34.5284 14.3861H33.6754C33.2897 14.3861 32.977 14.6954 32.977 15.0768V15.9205C32.977 16.302 33.2897 16.6112 33.6754 16.6112H34.5284C34.9141 16.6112 35.2268 16.302 35.2268 15.9205Z" fill="var(--fill-0, white)"/>
<path d="M34.7881 34.0914V33.5783C34.7881 33.3439 34.596 33.154 34.3591 33.154H33.8403C33.6034 33.154 33.4113 33.3439 33.4113 33.5783V34.0914C33.4113 34.3257 33.6034 34.5157 33.8403 34.5157H34.3591C34.596 34.5157 34.7881 34.3257 34.7881 34.0914Z" fill="var(--fill-0, white)"/>
<path d="M34.7881 30.4256V29.9125C34.7881 29.6782 34.596 29.4882 34.3591 29.4882H33.8403C33.6034 29.4882 33.4113 29.6782 33.4113 29.9125V30.4256C33.4113 30.6599 33.6034 30.8499 33.8403 30.8499H34.3591C34.596 30.8499 34.7881 30.6599 34.7881 30.4256Z" fill="var(--fill-0, white)"/>
<path d="M34.7881 26.7599V26.2468C34.7881 26.0124 34.596 25.8225 34.3591 25.8225H33.8403C33.6034 25.8225 33.4113 26.0124 33.4113 26.2468V26.7599C33.4113 26.9942 33.6034 27.1842 33.8403 27.1842H34.3591C34.596 27.1842 34.7881 26.9942 34.7881 26.7599Z" fill="var(--fill-0, white)"/>
<path d="M34.7881 23.0891V22.576C34.7881 22.3417 34.596 22.1517 34.3591 22.1517H33.8403C33.6034 22.1517 33.4113 22.3417 33.4113 22.576V23.0891C33.4113 23.3235 33.6034 23.5134 33.8403 23.5134H34.3591C34.596 23.5134 34.7881 23.3235 34.7881 23.0891Z" fill="var(--fill-0, white)"/>
<path d="M35.2268 19.5862V18.7425C35.2268 18.361 34.9141 18.0518 34.5284 18.0518H33.6754C33.2897 18.0518 32.977 18.361 32.977 18.7425V19.5862C32.977 19.9676 33.2897 20.2769 33.6754 20.2769H34.5284C34.9141 20.2769 35.2268 19.9676 35.2268 19.5862Z" fill="var(--fill-0, white)"/>
</g>
</g>
</svg>
