<svg preserveAspectRatio="none" width="100%" height="100%" overflow="visible" style="display: block;" viewBox="0 0 16 16" fill="none" xmlns="http://www.w3.org/2000/svg">
<g id="Email">
<rect width="16" height="16" rx="8" fill="var(--fill-0, #FF7F30)"/>
<path id="Vector" d="M12.599 7.35366C12.4313 6.13103 11.7847 5.02511 10.8016 4.27919C9.81842 3.53328 8.57923 3.20847 7.35659 3.37621C6.13396 3.54396 5.02804 4.19053 4.28212 5.17368C3.53621 6.15683 3.2114 7.39602 3.37914 8.61866C3.51735 9.6306 3.98238 10.5697 4.70346 11.293C5.42454 12.0163 6.36219 12.4842 7.3737 12.6255C7.58068 12.6526 7.7892 12.6663 7.99794 12.6663C8.84132 12.6677 9.6689 12.4376 10.3905 12.001C10.4411 11.9705 10.4853 11.9303 10.5204 11.8827C10.5555 11.8352 10.5809 11.7811 10.5951 11.7238C10.6094 11.6664 10.6122 11.6068 10.6034 11.5483C10.5946 11.4898 10.5743 11.4337 10.5438 11.383C10.5133 11.3324 10.4731 11.2882 10.4256 11.2531C10.378 11.218 10.324 11.1926 10.2666 11.1784C10.1507 11.1496 10.0282 11.1681 9.92589 11.2297C9.41229 11.538 8.83233 11.7188 8.23453 11.757C7.63672 11.7952 7.03846 11.6897 6.48979 11.4493C5.94112 11.2089 5.45799 10.8406 5.08081 10.3753C4.70364 9.90989 4.44339 9.36097 4.32183 8.77441C4.20028 8.18785 4.22095 7.58071 4.38212 7.00378C4.5433 6.42684 4.84028 5.8969 5.24824 5.45826C5.65619 5.01963 6.16326 4.68507 6.72701 4.48256C7.29076 4.28005 7.89482 4.21549 8.48863 4.29427C9.0402 4.36761 9.56854 4.56272 10.0354 4.86546C10.5022 5.16821 10.8959 5.57102 11.1878 6.04469C11.4798 6.51837 11.6627 7.05105 11.7233 7.60416C11.7839 8.15726 11.7208 8.71692 11.5384 9.2426C11.4911 9.36901 11.4056 9.47755 11.2938 9.55316C11.182 9.62878 11.0494 9.66771 10.9145 9.66456C10.7367 9.66433 10.5662 9.59358 10.4404 9.46784C10.3147 9.3421 10.244 9.17163 10.2437 8.9938V6.21322C10.2437 6.09383 10.1963 5.97932 10.1119 5.8949C10.0274 5.81047 9.91294 5.76304 9.79354 5.76304C9.67415 5.76304 9.55965 5.81047 9.47522 5.8949C9.3908 5.97932 9.34337 6.09383 9.34337 6.21322V6.21742C9.00209 5.95984 8.59451 5.8048 8.16833 5.77043C7.74214 5.73606 7.31498 5.82378 6.93684 6.02334C6.55869 6.2229 6.24521 6.52604 6.03308 6.89727C5.82094 7.26851 5.71893 7.69248 5.73899 8.11958C5.75904 8.54668 5.90032 8.95923 6.14631 9.30896C6.39229 9.65868 6.73279 9.93112 7.12797 10.0944C7.52315 10.2576 7.95665 10.3049 8.37774 10.2308C8.79883 10.1566 9.19009 9.96409 9.50573 9.67567C9.63326 9.94129 9.83306 10.1656 10.0822 10.3229C10.3314 10.4802 10.6198 10.564 10.9145 10.5649C11.2366 10.568 11.5517 10.4707 11.8159 10.2866C12.0802 10.1024 12.2806 9.84056 12.3893 9.53731C12.6319 8.83648 12.7038 8.08787 12.599 7.35366ZM7.99284 9.36445C7.72573 9.36445 7.46462 9.28524 7.24253 9.13684C7.02044 8.98845 6.84734 8.77752 6.74512 8.53074C6.6429 8.28397 6.61615 8.01242 6.66827 7.75045C6.72038 7.48847 6.849 7.24783 7.03788 7.05895C7.22675 6.87008 7.46739 6.74146 7.72937 6.68934C7.99134 6.63723 8.26289 6.66398 8.50967 6.7662C8.75644 6.86842 8.96737 7.04152 9.11576 7.26361C9.26416 7.4857 9.34337 7.74681 9.34337 8.01392C9.34297 8.37198 9.20056 8.71526 8.94737 8.96845C8.69418 9.22164 8.3509 9.36405 7.99284 9.36445Z" fill="var(--fill-0, white)"/>
</g>
</svg>
