<svg preserveAspectRatio="none" width="100%" height="100%" overflow="visible" style="display: block;" viewBox="0 0 739 731" fill="none" xmlns="http://www.w3.org/2000/svg">
<g id="Vector">
<path d="M0 219.825V255.78C0 272.104 13.3779 285.338 29.8804 285.338H66.2286C82.731 285.338 96.1089 272.104 96.1089 255.78V219.825C96.1089 203.501 82.731 190.268 66.2286 190.268H29.8804C13.3779 190.268 0 203.501 0 219.825Z" fill="var(--fill-0, #84909F)" fill-opacity="0.13"/>
<path d="M0 314.893V350.848C0 367.172 13.3779 380.406 29.8804 380.406H66.2284C82.7308 380.406 96.1087 367.172 96.1087 350.848V314.893C96.1087 298.569 82.731 285.338 66.2286 285.338H29.8804C13.3779 285.338 0 298.569 0 314.893Z" fill="var(--fill-0, #84909F)" fill-opacity="0.13"/>
<path d="M0 409.963V445.918C0 462.242 13.3779 475.476 29.8804 475.476H66.2284C82.7308 475.476 96.1089 462.242 96.1089 445.918V409.963C96.1089 393.639 82.7308 380.406 66.2284 380.406H29.8804C13.3779 380.406 0 393.639 0 409.963Z" fill="var(--fill-0, #84909F)" fill-opacity="0.13"/>
<path d="M0 505.033V540.988C0 557.312 13.3779 570.546 29.8804 570.546H66.2284C82.7308 570.546 96.1087 557.312 96.1087 540.988V505.033C96.1087 488.709 82.7308 475.476 66.2284 475.476H29.8804C13.3779 475.476 0 488.709 0 505.033Z" fill="var(--fill-0, #84909F)" fill-opacity="0.13"/>
<path d="M96.118 124.755V160.71C96.118 177.034 109.496 190.267 125.998 190.267H162.346C178.849 190.267 192.227 177.034 192.227 160.71V124.755C192.227 108.431 178.849 95.1976 162.346 95.1976H125.998C109.496 95.1976 96.118 108.431 96.118 124.755Z" fill="var(--fill-0, #84909F)" fill-opacity="0.13"/>
<path d="M96.2476 219.825V255.78C96.2476 272.104 109.625 285.337 126.128 285.337H162.476C178.979 285.337 192.357 272.104 192.357 255.78V219.825C192.357 203.501 178.979 190.268 162.476 190.268H126.128C109.625 190.268 96.2476 203.501 96.2476 219.825Z" fill="var(--fill-0, #84909F)" fill-opacity="0.13"/>
<path d="M96.1087 314.893V350.848C96.1087 367.172 109.496 380.406 125.998 380.406H162.346C178.849 380.406 192.227 367.173 192.227 350.849V314.894C192.227 298.57 178.849 285.336 162.346 285.336H125.998C109.496 285.336 96.1087 298.569 96.1087 314.893Z" fill="var(--fill-0, #84909F)" fill-opacity="0.13"/>
<path d="M96.1089 409.963V445.918C96.1089 462.242 109.496 475.476 125.998 475.476H162.346C178.849 475.476 192.227 462.243 192.227 445.919V409.964C192.227 393.64 178.849 380.406 162.346 380.406H125.998C109.496 380.406 96.1089 393.639 96.1089 409.963Z" fill="var(--fill-0, #84909F)" fill-opacity="0.13"/>
<path d="M192.204 124.755V160.71C192.204 177.034 205.581 190.267 222.084 190.267H258.432C274.934 190.267 288.312 177.034 288.312 160.71V124.755C288.312 108.431 274.934 95.1976 258.432 95.1976H222.084C205.581 95.1976 192.204 108.431 192.204 124.755Z" fill="var(--fill-0, #84909F)" fill-opacity="0.13"/>
<path d="M192.204 29.685V65.6401C192.204 81.9641 205.581 95.1976 222.084 95.1976H258.432C274.934 95.1976 288.312 81.9641 288.312 65.6401V29.685C288.312 13.361 274.934 0.127727 258.432 0.127727H222.084C205.581 0.127727 192.204 13.361 192.204 29.685Z" fill="var(--fill-0, #84909F)" fill-opacity="0.13"/>
<path d="M192.333 219.825V255.78C192.333 272.104 205.711 285.337 222.214 285.337H258.562C275.064 285.337 288.442 272.104 288.442 255.78V219.825C288.442 203.501 275.064 190.268 258.562 190.268H222.214C205.711 190.268 192.333 203.501 192.333 219.825Z" fill="var(--fill-0, #84909F)" fill-opacity="0.13"/>
<path d="M288.321 124.626V160.581C288.321 176.905 301.699 190.139 318.202 190.139H354.55C371.052 190.139 384.43 176.905 384.43 160.581V124.626C384.43 108.302 371.052 95.0689 354.55 95.0689H318.202C301.699 95.0689 288.321 108.302 288.321 124.626Z" fill="var(--fill-0, #84909F)" fill-opacity="0.13"/>
<path d="M288.451 29.5573V65.5123C288.451 81.8363 301.829 95.0698 318.331 95.0698H354.679C371.182 95.0698 384.56 81.8363 384.56 65.5123V29.5573C384.56 13.2332 371.182 0 354.679 0H318.331C301.829 0 288.451 13.2332 288.451 29.5573Z" fill="var(--fill-0, #84909F)" fill-opacity="0.13"/>
<path d="M288.451 219.696V255.651C288.451 271.975 301.829 285.209 318.331 285.209H354.68C371.182 285.209 384.56 271.975 384.56 255.651V219.696C384.56 203.372 371.182 190.139 354.68 190.139H318.331C301.829 190.139 288.451 203.372 288.451 219.696Z" fill="var(--fill-0, #84909F)" fill-opacity="0.13"/>
<path d="M384.56 29.5573V65.5123C384.56 81.8363 397.947 95.0698 414.449 95.0698H450.797C467.3 95.0698 480.678 81.8365 480.678 65.5125V29.5575C480.678 13.2334 467.3 0.00019783 450.797 0.00019783H414.449C397.947 0.00019783 384.56 13.2332 384.56 29.5573Z" fill="var(--fill-0, #84909F)" fill-opacity="0.13"/>
<path d="M106.716 604.07V632.22C106.716 644.94 117.14 655.252 129.999 655.252H158.457C171.316 655.252 181.74 644.94 181.74 632.22V604.07C181.74 591.35 171.316 581.038 158.457 581.038H129.999C117.14 581.038 106.716 591.35 106.716 604.07Z" fill="var(--fill-0, #84909F)" fill-opacity="0.13"/>
<path d="M106.716 509V537.15C106.716 549.87 117.14 560.182 129.999 560.182H158.457C171.316 560.182 181.74 549.87 181.74 537.15V509C181.74 496.28 171.316 485.968 158.457 485.968H129.999C117.14 485.968 106.716 496.28 106.716 509Z" fill="var(--fill-0, #84909F)" fill-opacity="0.13"/>
<path d="M211.097 607.269V629.149C211.097 639.042 219.204 647.063 229.206 647.063H251.325C261.327 647.063 269.434 639.042 269.434 629.149V607.269C269.434 597.376 261.327 589.356 251.325 589.356H229.206C219.204 589.356 211.097 597.376 211.097 607.269Z" fill="var(--fill-0, #84909F)" fill-opacity="0.13"/>
<path d="M222.471 706.561V719.868C222.471 725.946 227.452 730.872 233.596 730.872H247.048C253.192 730.872 258.172 725.946 258.172 719.868V706.561C258.172 700.484 253.192 695.557 247.048 695.557H233.596C227.452 695.557 222.471 700.484 222.471 706.561Z" fill="var(--fill-0, #84909F)" fill-opacity="0.13"/>
<path d="M192.333 314.894V350.849C192.333 367.173 205.711 380.406 222.214 380.406H258.562C275.064 380.406 288.442 367.173 288.442 350.849V314.894C288.442 298.57 275.064 285.337 258.562 285.337H222.214C205.711 285.337 192.333 298.57 192.333 314.894Z" fill="var(--fill-0, #84909F)" fill-opacity="0.13"/>
<path d="M202.833 413.93V442.079C202.833 454.799 213.257 465.111 226.116 465.111H254.574C267.433 465.111 277.857 454.799 277.857 442.079V413.93C277.857 401.21 267.433 390.898 254.574 390.898H226.116C213.257 390.898 202.833 401.21 202.833 413.93Z" fill="var(--fill-0, #84909F)" fill-opacity="0.13"/>
<path d="M202.833 508.999V537.149C202.833 549.869 213.257 560.181 226.116 560.181H254.574C267.433 560.181 277.857 549.869 277.857 537.149V508.999C277.857 496.279 267.433 485.968 254.574 485.968H226.116C213.257 485.968 202.833 496.279 202.833 508.999Z" fill="var(--fill-0, #84909F)" fill-opacity="0.13"/>
<path d="M307.212 607.14V629.02C307.212 638.914 315.32 646.934 325.321 646.934H347.44C357.442 646.934 365.55 638.914 365.55 629.02V607.14C365.55 597.247 357.442 589.227 347.44 589.227H325.321C315.32 589.227 307.212 597.247 307.212 607.14Z" fill="var(--fill-0, #84909F)" fill-opacity="0.13"/>
<path d="M318.589 706.689V719.996C318.589 726.073 323.57 731 329.714 731H343.166C349.31 731 354.29 726.073 354.29 719.996V706.689C354.29 700.611 349.31 695.685 343.166 695.685H329.714C323.57 695.685 318.589 700.611 318.589 706.689Z" fill="var(--fill-0, #84909F)" fill-opacity="0.13"/>
<path d="M298.918 318.861V347.011C298.918 359.731 309.343 370.042 322.202 370.042H350.659C363.518 370.042 373.943 359.731 373.943 347.011V318.861C373.943 306.141 363.518 295.829 350.659 295.829H322.202C309.343 295.829 298.918 306.141 298.918 318.861Z" fill="var(--fill-0, #84909F)" fill-opacity="0.13"/>
<path d="M299.048 413.93V442.08C299.048 454.8 309.472 465.111 322.331 465.111H350.789C363.648 465.111 374.072 454.8 374.072 442.08V413.93C374.072 401.21 363.648 390.898 350.789 390.898H322.331C309.472 390.898 299.048 401.21 299.048 413.93Z" fill="var(--fill-0, #84909F)" fill-opacity="0.13"/>
<path d="M307.212 512.071V533.951C307.212 543.844 315.32 551.865 325.321 551.865H347.44C357.442 551.865 365.55 543.844 365.55 533.951V512.071C365.55 502.178 357.442 494.157 347.44 494.157H325.321C315.32 494.157 307.212 502.178 307.212 512.071Z" fill="var(--fill-0, #84909F)" fill-opacity="0.13"/>
<path d="M414.704 611.491V624.799C414.704 630.876 419.684 635.803 425.828 635.803H439.281C445.425 635.803 450.405 630.876 450.405 624.799V611.491C450.405 605.414 445.425 600.488 439.281 600.488H425.828C419.684 600.488 414.704 605.414 414.704 611.491Z" fill="var(--fill-0, #84909F)" fill-opacity="0.13"/>
<path d="M414.704 706.561V719.868C414.704 725.945 419.684 730.872 425.828 730.872H439.281C445.424 730.872 450.405 725.945 450.405 719.868V706.561C450.405 700.483 445.424 695.557 439.281 695.557H425.828C419.684 695.557 414.704 700.483 414.704 706.561Z" fill="var(--fill-0, #84909F)" fill-opacity="0.13"/>
<path d="M395.166 128.466V156.615C395.166 169.335 405.59 179.647 418.449 179.647H446.907C459.766 179.647 470.19 169.335 470.19 156.615V128.466C470.19 115.746 459.766 105.434 446.907 105.434H418.449C405.59 105.434 395.166 115.746 395.166 128.466Z" fill="var(--fill-0, #84909F)" fill-opacity="0.13"/>
<path d="M395.036 223.663V251.813C395.036 264.533 405.461 274.845 418.32 274.845H446.777C459.636 274.845 470.061 264.533 470.061 251.813V223.663C470.061 210.943 459.636 200.631 446.777 200.631H418.32C405.461 200.631 395.036 210.943 395.036 223.663Z" fill="var(--fill-0, #84909F)" fill-opacity="0.13"/>
<path d="M395.036 318.733V346.883C395.036 359.603 405.461 369.915 418.32 369.915H446.777C459.636 369.915 470.061 359.603 470.061 346.883V318.733C470.061 306.013 459.636 295.701 446.777 295.701H418.32C405.461 295.701 395.036 306.013 395.036 318.733Z" fill="var(--fill-0, #84909F)" fill-opacity="0.13"/>
<path d="M403.462 417.001V438.881C403.462 448.774 411.57 456.794 421.571 456.794H443.691C453.692 456.794 461.8 448.774 461.8 438.881V417.001C461.8 407.107 453.692 399.087 443.691 399.087H421.571C411.57 399.087 403.462 407.107 403.462 417.001Z" fill="var(--fill-0, #84909F)" fill-opacity="0.13"/>
<path d="M403.462 512.071V533.951C403.462 543.844 411.57 551.864 421.572 551.864H443.691C453.692 551.864 461.8 543.844 461.8 533.951V512.071C461.8 502.177 453.692 494.157 443.691 494.157H421.572C411.57 494.157 403.462 502.177 403.462 512.071Z" fill="var(--fill-0, #84909F)" fill-opacity="0.13"/>
<path d="M510.955 611.491V624.798C510.955 630.876 515.935 635.802 522.079 635.802H535.532C541.676 635.802 546.656 630.876 546.656 624.798V611.491C546.656 605.414 541.676 600.487 535.532 600.487H522.079C515.935 600.487 510.955 605.414 510.955 611.491Z" fill="var(--fill-0, #84909F)" fill-opacity="0.13"/>
<path d="M510.825 706.561V719.868C510.825 725.946 515.806 730.872 521.949 730.872H535.402C541.546 730.872 546.526 725.946 546.526 719.868V706.561C546.526 700.484 541.546 695.557 535.402 695.557H521.949C515.806 695.557 510.825 700.484 510.825 706.561Z" fill="var(--fill-0, #84909F)" fill-opacity="0.13"/>
<path d="M491.284 128.594V156.744C491.284 169.464 501.708 179.776 514.567 179.776H543.025C555.884 179.776 566.308 169.464 566.308 156.744V128.594C566.308 115.874 555.884 105.563 543.025 105.563H514.567C501.708 105.563 491.284 115.874 491.284 128.594Z" fill="var(--fill-0, #84909F)" fill-opacity="0.13"/>
<path d="M491.284 33.3947V61.5445C491.284 74.2645 501.708 84.5762 514.567 84.5762H543.025C555.884 84.5762 566.308 74.2645 566.308 61.5445V33.3947C566.308 20.6747 555.884 10.363 543.025 10.363H514.567C501.708 10.363 491.284 20.6747 491.284 33.3947Z" fill="var(--fill-0, #84909F)" fill-opacity="0.13"/>
<path d="M499.548 226.862V248.742C499.548 258.635 507.656 266.655 517.657 266.655H539.776C549.778 266.655 557.886 258.635 557.886 248.742V226.862C557.886 216.968 549.778 208.948 539.776 208.948H517.657C507.656 208.948 499.548 216.968 499.548 226.862Z" fill="var(--fill-0, #84909F)" fill-opacity="0.13"/>
<path d="M499.548 321.932V343.812C499.548 353.705 507.656 361.725 517.657 361.725H539.776C549.778 361.725 557.886 353.705 557.886 343.812V321.932C557.886 312.038 549.778 304.018 539.776 304.018H517.657C507.656 304.018 499.548 312.038 499.548 321.932Z" fill="var(--fill-0, #84909F)" fill-opacity="0.13"/>
<path d="M499.548 417.001V438.881C499.548 448.774 507.655 456.794 517.657 456.794H539.776C549.778 456.794 557.886 448.774 557.886 438.881V417.001C557.886 407.107 549.778 399.087 539.776 399.087H517.657C507.655 399.087 499.548 407.107 499.548 417.001Z" fill="var(--fill-0, #84909F)" fill-opacity="0.13"/>
<path d="M510.955 516.421V529.728C510.955 535.806 515.935 540.733 522.079 540.733H535.532C541.675 540.733 546.656 535.806 546.656 529.728V516.421C546.656 510.344 541.675 505.417 535.532 505.417H522.079C515.935 505.417 510.955 510.344 510.955 516.421Z" fill="var(--fill-0, #84909F)" fill-opacity="0.13"/>
<path d="M738.87 529.729V516.422C738.87 510.345 733.89 505.418 727.746 505.418H714.293C708.15 505.418 703.169 510.345 703.169 516.422V529.729C703.169 535.807 708.15 540.733 714.293 540.733H727.746C733.89 540.733 738.87 535.807 738.87 529.729Z" fill="var(--fill-0, #84909F)" fill-opacity="0.13"/>
<path d="M738.87 434.531V421.224C738.87 415.146 733.89 410.22 727.746 410.22H714.293C708.15 410.22 703.169 415.146 703.169 421.224V434.531C703.169 440.608 708.15 445.535 714.293 445.535H727.746C733.89 445.535 738.87 440.608 738.87 434.531Z" fill="var(--fill-0, #84909F)" fill-opacity="0.13"/>
<path d="M739 339.461V326.154C739 320.076 734.019 315.15 727.876 315.15H714.423C708.279 315.15 703.299 320.076 703.299 326.154V339.461C703.299 345.538 708.279 350.465 714.423 350.465H727.876C734.019 350.465 739 345.538 739 339.461Z" fill="var(--fill-0, #84909F)" fill-opacity="0.13"/>
<path d="M738.87 244.392V231.085C738.87 225.007 733.89 220.081 727.746 220.081H714.293C708.15 220.081 703.169 225.007 703.169 231.085V244.392C703.169 250.469 708.15 255.396 714.293 255.396H727.746C733.89 255.396 738.87 250.469 738.87 244.392Z" fill="var(--fill-0, #84909F)" fill-opacity="0.13"/>
<path d="M654.127 153.545V131.665C654.127 121.772 646.019 113.752 636.018 113.752H613.899C603.897 113.752 595.789 121.772 595.789 131.665V153.545C595.789 163.438 603.897 171.459 613.899 171.459H636.018C646.019 171.459 654.127 163.438 654.127 153.545Z" fill="var(--fill-0, #84909F)" fill-opacity="0.13"/>
<path d="M642.752 624.799V611.492C642.752 605.414 637.771 600.488 631.627 600.488H618.175C612.031 600.488 607.05 605.414 607.05 611.492V624.799C607.05 630.876 612.031 635.803 618.175 635.803H631.627C637.771 635.803 642.752 630.876 642.752 624.799Z" fill="var(--fill-0, #84909F)" fill-opacity="0.13"/>
<path d="M642.752 529.729V516.422C642.752 510.344 637.771 505.418 631.627 505.418H618.175C612.031 505.418 607.051 510.344 607.051 516.422V529.729C607.051 535.806 612.031 540.733 618.175 540.733H631.627C637.771 540.733 642.752 535.806 642.752 529.729Z" fill="var(--fill-0, #84909F)" fill-opacity="0.13"/>
<path d="M642.752 434.66V421.353C642.752 415.275 637.771 410.349 631.627 410.349H618.175C612.031 410.349 607.05 415.275 607.05 421.353V434.66C607.05 440.737 612.031 445.664 618.175 445.664H631.627C637.771 445.664 642.752 440.737 642.752 434.66Z" fill="var(--fill-0, #84909F)" fill-opacity="0.13"/>
<path d="M642.752 339.461V326.154C642.752 320.076 637.771 315.15 631.627 315.15H618.175C612.031 315.15 607.051 320.076 607.051 326.154V339.461C607.051 345.538 612.031 350.465 618.175 350.465H631.627C637.771 350.465 642.752 345.538 642.752 339.461Z" fill="var(--fill-0, #84909F)" fill-opacity="0.13"/>
<path d="M654.127 248.613V226.733C654.127 216.84 646.019 208.819 636.018 208.819H613.899C603.897 208.819 595.789 216.84 595.789 226.733V248.613C595.789 258.506 603.897 266.527 613.899 266.527H636.018C646.019 266.527 654.127 258.506 654.127 248.613Z" fill="var(--fill-0, #84909F)" fill-opacity="0.13"/>
</g>
</svg>
